<?xml version="1.0" encoding="UTF-8"?>
<svg id="_图层_1" data-name="图层 1" xmlns="http://www.w3.org/2000/svg" version="1.1" viewBox="0 0 1037 600">
  <defs>
    <style>
      .cls-1 {
        stroke-dasharray: 0 0 11.14 1.86;
      }

      .cls-1, .cls-2, .cls-3, .cls-4, .cls-5, .cls-6, .cls-7, .cls-8, .cls-9, .cls-10, .cls-11, .cls-12, .cls-13, .cls-14, .cls-15, .cls-16, .cls-17, .cls-18, .cls-19, .cls-20, .cls-21, .cls-22, .cls-23 {
        fill: none;
      }

      .cls-1, .cls-2, .cls-3, .cls-4, .cls-6, .cls-7, .cls-8, .cls-9, .cls-10, .cls-11, .cls-12, .cls-13, .cls-14, .cls-15, .cls-16, .cls-17, .cls-18, .cls-19, .cls-24, .cls-20, .cls-25, .cls-21, .cls-26, .cls-22, .cls-23 {
        stroke: #231815;
        stroke-miterlimit: 10;
        stroke-width: 2px;
      }

      .cls-2 {
        stroke-dasharray: 0 0 12.02 6.01;
      }

      .cls-4 {
        stroke-dasharray: 0 0 12.05 6.02;
      }

      .cls-5, .cls-27, .cls-28, .cls-29 {
        stroke-width: 0px;
      }

      .cls-30 {
        font-size: 18px;
      }

      .cls-30, .cls-28, .cls-31, .cls-32, .cls-33, .cls-34, .cls-35 {
        fill: #231815;
      }

      .cls-30, .cls-31, .cls-32, .cls-33, .cls-34, .cls-35 {
        font-family: Arial-BoldMT, Arial;
        font-weight: 700;
      }

      .cls-27, .cls-24 {
        fill: #efefef;
      }

      .cls-6 {
        stroke-dasharray: 0 0 11.9 5.95;
      }

      .cls-7 {
        stroke-dasharray: 0 0 12 2;
      }

      .cls-8 {
        stroke-dasharray: 0 0 11.99 5.99;
      }

      .cls-9 {
        stroke-dasharray: 0 0 11.9 1.98;
      }

      .cls-10 {
        stroke-dasharray: 0 0 12.03 2;
      }

      .cls-11 {
        stroke-dasharray: 0 0 11.97 5.98;
      }

      .cls-36 {
        letter-spacing: 0em;
      }

      .cls-36, .cls-37 {
        font-size: 14px;
      }

      .cls-31 {
        font-size: 12px;
      }

      .cls-29 {
        fill: #acc1d7;
      }

      .cls-12 {
        stroke-dasharray: 0 0 12.12 2.02;
      }

      .cls-32 {
        font-size: 10px;
      }

      .cls-33 {
        font-size: 11px;
      }

      .cls-38, .cls-34, .cls-39 {
        font-size: 9px;
      }

      .cls-13 {
        stroke-dasharray: 0 0 11.67 1.95;
      }

      .cls-14 {
        stroke-dasharray: 0 0 11.9 1.98;
      }

      .cls-15 {
        stroke-dasharray: 0 0 12.56 2.09;
      }

      .cls-16 {
        stroke-dasharray: 0 0 11.86 1.98;
      }

      .cls-17 {
        stroke-dasharray: 0 0 11.98 2;
      }

      .cls-18 {
        stroke-dasharray: 0 0 11.79 1.97;
      }

      .cls-19 {
        stroke-dasharray: 0 0 12.01 2;
      }

      .cls-20 {
        stroke-dasharray: 0 11.19;
      }

      .cls-25 {
        fill: #fff;
      }

      .cls-21 {
        stroke-dasharray: 0 0 12 6;
      }

      .cls-26 {
        fill: #bedff6;
      }

      .cls-22 {
        stroke-dasharray: 0 0 12.46 2.08;
      }

      .cls-23 {
        stroke-dasharray: 0 0 11.66 1.94;
      }

      .cls-39 {
        letter-spacing: 0em;
      }
    </style>
  </defs>
  <g>
    <rect class="cls-27" x="783.17" y="372.17" width="224.13" height="171.19" rx="13.32" ry="13.32"/>
    <rect class="cls-6" x="783.17" y="372.17" width="224.13" height="171.19" rx="13.32" ry="13.32"/>
  </g>
  <g>
    <rect class="cls-27" x="219.05" y="262.03" width="210.98" height="69.78" rx="11.71" ry="11.71"/>
    <rect class="cls-9" x="219.05" y="262.03" width="210.98" height="69.78" rx="11.71" ry="11.71"/>
  </g>
  <rect class="cls-24" x="26.7" y="114.63" width="151.05" height="105.01" rx="8.64" ry="8.64"/>
  <g>
    <polyline class="cls-3" points="305.23 218.46 305.23 224.46 299.23 224.46"/>
    <line class="cls-1" x1="297.37" y1="224.46" x2="233.32" y2="224.46"/>
    <polyline class="cls-3" points="232.39 224.46 226.39 224.46 226.39 218.46"/>
    <line class="cls-19" x1="226.39" y1="216.45" x2="226.39" y2="105.36"/>
    <polyline class="cls-3" points="226.39 104.36 226.39 98.36 232.39 98.36"/>
    <line class="cls-1" x1="234.25" y1="98.36" x2="298.3" y2="98.36"/>
    <polyline class="cls-3" points="299.23 98.36 305.23 98.36 305.23 104.36"/>
    <line class="cls-19" x1="305.23" y1="106.36" x2="305.23" y2="217.46"/>
  </g>
  <rect class="cls-25" x="40.17" y="124.02" width="124.1" height="38.63" rx="5.31" ry="5.31"/>
  <g>
    <path class="cls-28" d="M45.43,140.7v-8.59h1.69l3.52,5.74v-5.74h1.61v8.59h-1.74l-3.46-5.6v5.6h-1.61Z"/>
    <path class="cls-28" d="M53.69,137.5c0-.55.13-1.08.4-1.59s.65-.9,1.15-1.17,1.05-.4,1.66-.4c.94,0,1.71.31,2.31.92s.9,1.38.9,2.32-.3,1.72-.91,2.34-1.37.93-2.29.93c-.57,0-1.11-.13-1.63-.39s-.91-.64-1.18-1.13-.4-1.1-.4-1.82ZM55.38,137.59c0,.62.15,1.09.44,1.42s.65.49,1.08.49.79-.16,1.08-.49.44-.8.44-1.43-.15-1.08-.44-1.41-.65-.49-1.08-.49-.79.16-1.08.49-.44.8-.44,1.42Z"/>
    <path class="cls-28" d="M67.11,140.7h-1.53v-.91c-.25.36-.55.62-.9.79s-.69.26-1.05.26c-.71,0-1.33-.29-1.84-.86s-.76-1.38-.76-2.41.25-1.86.74-2.41,1.12-.82,1.88-.82c.7,0,1.3.29,1.8.87v-3.09h1.65v8.59ZM62.71,137.46c0,.66.09,1.14.28,1.44.27.43.64.64,1.11.64.38,0,.7-.16.97-.48s.4-.8.4-1.44c0-.71-.13-1.23-.39-1.54s-.59-.47-.99-.47-.72.16-.98.47-.4.77-.4,1.39Z"/>
    <path class="cls-28" d="M72.33,138.72l1.64.28c-.21.6-.54,1.06-1,1.37s-1.02.47-1.71.47c-1.08,0-1.88-.35-2.4-1.06-.41-.57-.62-1.28-.62-2.14,0-1.03.27-1.84.81-2.42s1.22-.88,2.04-.88c.93,0,1.66.31,2.19.92s.79,1.55.77,2.81h-4.12c.01.49.14.87.4,1.14s.57.41.95.41c.26,0,.47-.07.65-.21s.31-.37.4-.68ZM72.43,137.06c-.01-.48-.13-.84-.37-1.09s-.52-.37-.86-.37c-.36,0-.66.13-.89.39s-.35.62-.35,1.07h2.46Z"/>
    <path class="cls-28" d="M78.76,140.7v-8.59h5.89v1.45h-4.15v2.03h3.59v1.45h-3.59v3.65h-1.73Z"/>
    <path class="cls-28" d="M89.67,138.72l1.64.28c-.21.6-.54,1.06-1,1.37s-1.02.47-1.71.47c-1.08,0-1.88-.35-2.4-1.06-.41-.57-.62-1.28-.62-2.14,0-1.03.27-1.84.81-2.42s1.22-.88,2.04-.88c.93,0,1.66.31,2.19.92s.79,1.55.77,2.81h-4.12c.01.49.14.87.4,1.14s.57.41.95.41c.26,0,.47-.07.65-.21s.31-.37.4-.68ZM89.77,137.06c-.01-.48-.13-.84-.37-1.09s-.52-.37-.86-.37c-.36,0-.66.13-.89.39s-.35.62-.35,1.07h2.46Z"/>
    <path class="cls-28" d="M93.97,136.38l-1.49-.27c.17-.6.46-1.05.87-1.34s1.02-.43,1.83-.43c.73,0,1.28.09,1.64.26s.61.39.76.66.22.76.22,1.47l-.02,1.92c0,.55.03.95.08,1.21s.15.54.3.83h-1.63c-.04-.11-.1-.27-.16-.49-.03-.1-.05-.16-.06-.19-.28.27-.58.48-.9.62s-.66.21-1.03.21c-.64,0-1.15-.17-1.51-.52s-.55-.79-.55-1.32c0-.35.08-.67.25-.94s.4-.49.71-.63.74-.27,1.31-.38c.77-.14,1.3-.28,1.6-.4v-.16c0-.32-.08-.54-.23-.68s-.45-.2-.88-.2c-.29,0-.52.06-.69.17s-.3.32-.4.61ZM96.18,137.71c-.21.07-.54.15-1,.25s-.76.19-.9.29c-.21.15-.32.35-.32.58s.09.43.26.6.39.25.66.25c.3,0,.58-.1.85-.29.2-.15.33-.33.39-.54.04-.14.06-.41.06-.8v-.33Z"/>
    <path class="cls-28" d="M102.27,134.48v1.31h-1.12v2.51c0,.51.01.8.03.89s.07.15.15.21.17.08.28.08c.15,0,.37-.05.66-.16l.14,1.28c-.38.16-.82.25-1.3.25-.3,0-.56-.05-.8-.15s-.41-.23-.52-.39-.19-.37-.23-.64c-.04-.19-.05-.58-.05-1.16v-2.71h-.76v-1.31h.76v-1.24l1.65-.96v2.2h1.12Z"/>
    <path class="cls-28" d="M107.51,140.7v-.93c-.23.33-.52.59-.89.79s-.76.29-1.17.29-.79-.09-1.12-.28-.57-.44-.72-.77-.22-.79-.22-1.38v-3.94h1.65v2.86c0,.88.03,1.41.09,1.61s.17.35.33.47.36.17.61.17c.28,0,.53-.08.76-.23s.38-.35.46-.57.12-.79.12-1.68v-2.62h1.65v6.22h-1.53Z"/>
    <path class="cls-28" d="M112.32,140.7h-1.65v-6.22h1.53v.88c.26-.42.5-.69.71-.83s.45-.2.71-.2c.38,0,.74.1,1.08.31l-.51,1.44c-.28-.18-.54-.27-.77-.27s-.43.06-.59.19-.29.36-.38.69-.14,1.03-.14,2.09v1.92Z"/>
    <path class="cls-28" d="M119.02,138.72l1.64.28c-.21.6-.54,1.06-1,1.37s-1.02.47-1.71.47c-1.08,0-1.88-.35-2.4-1.06-.41-.57-.62-1.28-.62-2.14,0-1.03.27-1.84.81-2.42s1.22-.88,2.04-.88c.93,0,1.66.31,2.19.92s.79,1.55.77,2.81h-4.12c.01.49.14.87.4,1.14s.57.41.95.41c.26,0,.47-.07.65-.21s.31-.37.4-.68ZM119.11,137.06c-.01-.48-.13-.84-.37-1.09s-.52-.37-.86-.37c-.36,0-.66.13-.89.39s-.35.62-.35,1.07h2.46Z"/>
    <path class="cls-28" d="M125.41,140.7v-8.59h2.6l1.56,5.86,1.54-5.86h2.6v8.59h-1.61v-6.76l-1.71,6.76h-1.67l-1.7-6.76v6.76h-1.61Z"/>
    <path class="cls-28" d="M136.65,136.38l-1.49-.27c.17-.6.46-1.05.87-1.34s1.02-.43,1.83-.43c.73,0,1.28.09,1.64.26s.61.39.76.66.22.76.22,1.47l-.02,1.92c0,.55.03.95.08,1.21s.15.54.3.83h-1.63c-.04-.11-.1-.27-.16-.49-.03-.1-.05-.16-.06-.19-.28.27-.58.48-.9.62s-.66.21-1.03.21c-.64,0-1.15-.17-1.51-.52s-.55-.79-.55-1.32c0-.35.08-.67.25-.94s.4-.49.71-.63.74-.27,1.31-.38c.77-.14,1.3-.28,1.6-.4v-.16c0-.32-.08-.54-.23-.68s-.45-.2-.88-.2c-.29,0-.52.06-.69.17s-.3.32-.4.61ZM138.85,137.71c-.21.07-.54.15-1,.25s-.76.19-.9.29c-.21.15-.32.35-.32.58s.09.43.26.6.39.25.66.25c.3,0,.58-.1.85-.29.2-.15.33-.33.39-.54.04-.14.06-.41.06-.8v-.33Z"/>
    <path class="cls-28" d="M144.94,134.48v1.31h-1.12v2.51c0,.51.01.8.03.89s.07.15.15.21.17.08.28.08c.15,0,.37-.05.66-.16l.14,1.28c-.38.16-.82.25-1.3.25-.3,0-.56-.05-.8-.15s-.41-.23-.52-.39-.19-.37-.23-.64c-.04-.19-.05-.58-.05-1.16v-2.71h-.76v-1.31h.76v-1.24l1.65-.96v2.2h1.12Z"/>
    <path class="cls-28" d="M147.66,140.7h-1.65v-6.22h1.53v.88c.26-.42.5-.69.71-.83s.45-.2.71-.2c.38,0,.74.1,1.08.31l-.51,1.44c-.28-.18-.54-.27-.77-.27s-.43.06-.59.19-.29.36-.38.69-.14,1.03-.14,2.09v1.92Z"/>
    <path class="cls-28" d="M150.76,133.64v-1.52h1.65v1.52h-1.65ZM150.76,140.7v-6.22h1.65v6.22h-1.65Z"/>
    <path class="cls-28" d="M153.3,140.7l2.24-3.21-2.15-3.02h2.01l1.1,1.71,1.16-1.71h1.93l-2.11,2.95,2.3,3.28h-2.02l-1.27-1.93-1.28,1.93h-1.93Z"/>
    <path class="cls-28" d="M50.62,154.81h-.94c-.5-.75-.88-1.53-1.14-2.34s-.39-1.6-.39-2.35c0-.94.16-1.83.48-2.67.28-.73.63-1.4,1.06-2.02h.94c-.45.99-.75,1.83-.92,2.52s-.25,1.42-.25,2.2c0,.53.05,1.08.15,1.64s.24,1.09.41,1.6c.11.33.31.81.6,1.43Z"/>
    <path class="cls-28" d="M51.7,152.7v-7.16h1.41l2.93,4.78v-4.78h1.34v7.16h-1.45l-2.89-4.67v4.67h-1.34Z"/>
    <path class="cls-28" d="M66.39,152.7h-1.37v-2.65c0-.56-.03-.92-.09-1.09s-.15-.29-.29-.38-.29-.14-.48-.14c-.24,0-.45.06-.64.2s-.32.3-.39.52-.1.61-.1,1.19v2.35h-1.37v-5.19h1.27v.76c.45-.59,1.02-.88,1.71-.88.3,0,.58.05.83.16s.44.25.57.42.22.36.27.58.08.52.08.92v3.22Z"/>
    <path class="cls-28" d="M67.47,150.04c0-.46.11-.9.34-1.32s.54-.75.95-.98.87-.34,1.38-.34c.78,0,1.43.25,1.93.76s.75,1.15.75,1.93-.25,1.43-.76,1.95-1.14.77-1.91.77c-.48,0-.93-.11-1.36-.32s-.76-.53-.98-.94-.34-.92-.34-1.52ZM68.87,150.11c0,.51.12.91.37,1.18s.55.41.9.41.66-.14.9-.41.36-.67.36-1.19-.12-.9-.36-1.17-.54-.41-.9-.41-.66.14-.9.41-.37.67-.37,1.18Z"/>
    <path class="cls-28" d="M78.65,152.7h-1.27v-.76c-.21.3-.46.52-.75.66s-.58.22-.87.22c-.6,0-1.11-.24-1.53-.72s-.64-1.15-.64-2.01.21-1.55.62-2,.94-.69,1.57-.69c.58,0,1.08.24,1.5.72v-2.58h1.37v7.16ZM74.99,150c0,.55.08.95.23,1.2.22.36.53.54.93.54.32,0,.58-.13.81-.4s.33-.67.33-1.2c0-.6-.11-1.02-.32-1.29s-.49-.39-.83-.39-.6.13-.82.39-.33.65-.33,1.16Z"/>
    <path class="cls-28" d="M83,151.05l1.37.23c-.18.5-.45.88-.83,1.15s-.85.39-1.42.39c-.9,0-1.57-.29-2-.88-.34-.47-.51-1.07-.51-1.79,0-.86.22-1.53.67-2.02s1.02-.73,1.7-.73c.77,0,1.38.25,1.83.76s.66,1.29.64,2.34h-3.44c0,.41.12.72.33.95s.48.34.79.34c.21,0,.4-.06.54-.18s.26-.31.33-.57ZM83.08,149.66c0-.4-.11-.7-.31-.91s-.43-.31-.71-.31c-.3,0-.55.11-.74.33s-.29.51-.29.89h2.05Z"/>
    <path class="cls-28" d="M85.08,151.22l1.38-.21c.06.27.18.47.36.61s.43.21.75.21c.35,0,.62-.06.8-.2.12-.09.18-.21.18-.37,0-.1-.03-.19-.1-.26-.07-.06-.22-.13-.46-.18-1.11-.24-1.81-.47-2.1-.67-.41-.28-.62-.67-.62-1.17,0-.45.18-.83.53-1.13s.9-.46,1.65-.46,1.24.12,1.58.35.58.57.71,1.03l-1.29.24c-.06-.2-.16-.36-.31-.46s-.38-.16-.66-.16c-.36,0-.62.05-.78.15-.1.07-.16.16-.16.28,0,.1.05.18.14.25.12.09.55.22,1.28.39s1.24.37,1.53.61c.29.24.43.58.43,1.02,0,.48-.2.88-.6,1.23s-.98.51-1.76.51c-.71,0-1.27-.14-1.68-.43s-.68-.68-.81-1.17Z"/>
    <path class="cls-28" d="M93.73,150.65l1.47-1.47-1.48-1.48.91-.91,1.48,1.48,1.47-1.47.88.89-1.47,1.47,1.49,1.49-.91.91-1.49-1.49-1.47,1.47-.88-.89Z"/>
    <path class="cls-28" d="M102.53,145.54h2.64c.6,0,1.05.05,1.36.14.42.12.78.34,1.08.66s.53.7.68,1.16.23,1.02.23,1.69c0,.59-.07,1.1-.22,1.52-.18.52-.43.94-.77,1.26-.25.24-.59.43-1.02.57-.32.1-.75.15-1.28.15h-2.72v-7.16ZM103.97,146.75v4.74h1.08c.4,0,.69-.02.87-.07.23-.06.43-.16.58-.3s.28-.37.38-.69.15-.76.15-1.31-.05-.98-.15-1.27-.23-.53-.41-.69-.4-.28-.67-.34c-.2-.05-.6-.07-1.19-.07h-.65Z"/>
    <path class="cls-28" d="M112.54,152.7v-7.16h4.91v1.21h-3.46v1.69h2.99v1.21h-2.99v3.04h-1.45Z"/>
    <path class="cls-28" d="M121.63,151.05l1.37.23c-.18.5-.45.88-.83,1.15s-.85.39-1.42.39c-.9,0-1.57-.29-2-.88-.34-.47-.51-1.07-.51-1.79,0-.86.22-1.53.67-2.02s1.02-.73,1.7-.73c.77,0,1.38.25,1.83.76s.66,1.29.64,2.34h-3.44c0,.41.12.72.33.95s.48.34.79.34c.21,0,.4-.06.54-.18s.26-.31.33-.57ZM121.71,149.66c0-.4-.11-.7-.31-.91s-.43-.31-.71-.31c-.3,0-.55.11-.74.33s-.29.51-.29.89h2.05Z"/>
    <path class="cls-28" d="M125.22,149.1l-1.25-.22c.14-.5.38-.87.72-1.11s.85-.36,1.52-.36c.61,0,1.07.07,1.37.22s.51.33.63.55.18.63.18,1.23v1.6c-.01.46,0,.79.05,1.01s.13.45.25.7h-1.36c-.04-.09-.08-.23-.13-.41-.02-.08-.04-.14-.05-.16-.23.23-.48.4-.75.51s-.55.17-.85.17c-.53,0-.95-.15-1.26-.43s-.46-.66-.46-1.1c0-.29.07-.55.21-.78s.34-.41.59-.53.62-.23,1.09-.32c.64-.12,1.09-.23,1.33-.34v-.14c0-.26-.06-.45-.2-.56s-.38-.17-.74-.17c-.24,0-.43.05-.57.14s-.25.26-.33.51ZM127.05,150.21c-.18.06-.45.13-.83.21s-.63.16-.75.24c-.18.13-.27.29-.27.48s.07.36.21.5.33.21.55.21c.25,0,.48-.08.71-.24.17-.12.27-.27.33-.45.04-.12.05-.34.05-.67v-.27Z"/>
    <path class="cls-28" d="M132.13,147.52v1.09h-.94v2.09c0,.42,0,.67.03.74s.06.13.12.17.14.07.23.07c.13,0,.31-.04.55-.13l.12,1.06c-.32.14-.68.21-1.08.21-.25,0-.47-.04-.67-.12s-.34-.19-.44-.32-.16-.31-.19-.53c-.03-.16-.04-.48-.04-.97v-2.26h-.63v-1.09h.63v-1.03l1.38-.8v1.83h.94Z"/>
    <path class="cls-28" d="M136.5,152.7v-.78c-.19.28-.44.49-.74.65s-.63.24-.97.24-.66-.08-.94-.23-.48-.37-.6-.64-.19-.66-.19-1.15v-3.28h1.37v2.38c0,.73.03,1.18.08,1.34s.14.29.28.39.3.14.51.14c.23,0,.44-.06.63-.19s.31-.29.38-.48.1-.66.1-1.4v-2.19h1.37v5.19h-1.27Z"/>
    <path class="cls-28" d="M140.5,152.7h-1.37v-5.19h1.27v.74c.22-.35.41-.58.59-.69s.37-.17.59-.17c.31,0,.61.09.9.26l-.42,1.2c-.23-.15-.45-.22-.64-.22s-.35.05-.49.16-.24.3-.31.57-.11.86-.11,1.74v1.6Z"/>
    <path class="cls-28" d="M146.08,151.05l1.37.23c-.18.5-.45.88-.83,1.15s-.85.39-1.42.39c-.9,0-1.57-.29-2-.88-.34-.47-.51-1.07-.51-1.79,0-.86.22-1.53.67-2.02s1.02-.73,1.7-.73c.77,0,1.38.25,1.83.76s.66,1.29.64,2.34h-3.44c0,.41.12.72.33.95s.48.34.79.34c.21,0,.4-.06.54-.18s.26-.31.33-.57ZM146.16,149.66c0-.4-.11-.7-.31-.91s-.43-.31-.71-.31c-.3,0-.55.11-.74.33s-.29.51-.29.89h2.05Z"/>
    <path class="cls-28" d="M148.16,151.22l1.38-.21c.06.27.18.47.36.61s.43.21.75.21c.35,0,.62-.06.8-.2.12-.09.18-.21.18-.37,0-.1-.03-.19-.1-.26-.07-.06-.22-.13-.46-.18-1.11-.24-1.81-.47-2.1-.67-.41-.28-.62-.67-.62-1.17,0-.45.18-.83.53-1.13s.9-.46,1.65-.46,1.24.12,1.58.35.58.57.71,1.03l-1.29.24c-.06-.2-.16-.36-.31-.46s-.38-.16-.66-.16c-.36,0-.62.05-.78.15-.1.07-.16.16-.16.28,0,.1.05.18.14.25.12.09.55.22,1.28.39s1.24.37,1.53.61c.29.24.43.58.43,1.02,0,.48-.2.88-.6,1.23s-.98.51-1.76.51c-.71,0-1.27-.14-1.68-.43s-.68-.68-.81-1.17Z"/>
    <path class="cls-28" d="M153.82,154.81c.27-.58.46-1.02.57-1.33s.21-.67.31-1.07.16-.79.21-1.15.07-.73.07-1.12c0-.77-.08-1.51-.25-2.2s-.47-1.53-.92-2.52h.93c.49.7.87,1.44,1.15,2.23s.41,1.58.41,2.39c0,.68-.11,1.41-.32,2.19-.24.87-.65,1.73-1.21,2.58h-.95Z"/>
  </g>
  <rect class="cls-25" x="40.17" y="172.13" width="124.1" height="38.63" rx="5.28" ry="5.28"/>
  <g>
    <path class="cls-28" d="M71.09,188.81v-8.59h6.37v1.45h-4.63v1.9h4.31v1.45h-4.31v2.34h4.8v1.45h-6.53Z"/>
    <path class="cls-28" d="M84.79,188.81h-1.53v-.91c-.25.36-.55.62-.9.79s-.69.26-1.05.26c-.71,0-1.33-.29-1.84-.86s-.76-1.38-.76-2.41.25-1.86.74-2.41,1.12-.82,1.88-.82c.7,0,1.3.29,1.8.87v-3.09h1.65v8.59ZM80.39,185.57c0,.66.09,1.14.28,1.44.27.43.64.64,1.11.64.38,0,.7-.16.97-.48s.4-.8.4-1.44c0-.71-.13-1.23-.39-1.54s-.59-.47-.99-.47-.72.16-.98.47-.4.77-.4,1.39Z"/>
    <path class="cls-28" d="M86.26,189.22l1.88.23c.03.22.1.37.22.45.16.12.4.18.74.18.43,0,.75-.06.97-.19.14-.09.25-.22.33-.42.05-.14.08-.39.08-.76v-.91c-.49.67-1.11,1.01-1.86,1.01-.84,0-1.5-.35-1.99-1.06-.38-.56-.57-1.25-.57-2.09,0-1.04.25-1.84.75-2.39s1.13-.83,1.87-.83,1.4.34,1.9,1.01v-.87h1.54v5.58c0,.73-.06,1.28-.18,1.65s-.29.65-.51.86-.51.37-.88.49-.83.18-1.39.18c-1.05,0-1.8-.18-2.24-.54s-.66-.82-.66-1.37c0-.05,0-.12,0-.2ZM87.73,185.57c0,.66.13,1.14.38,1.45s.57.46.95.46c.4,0,.74-.16,1.02-.47s.42-.78.42-1.4-.13-1.12-.4-1.44-.6-.47-1.01-.47-.72.15-.98.46-.38.77-.38,1.4Z"/>
    <path class="cls-28" d="M97.34,186.83l1.64.28c-.21.6-.54,1.06-1,1.37s-1.02.47-1.71.47c-1.08,0-1.88-.35-2.4-1.06-.41-.57-.62-1.28-.62-2.14,0-1.03.27-1.84.81-2.42s1.22-.88,2.04-.88c.93,0,1.66.31,2.19.92s.79,1.55.77,2.81h-4.12c.01.49.14.87.4,1.14s.57.41.95.41c.26,0,.47-.07.65-.21s.31-.37.4-.68ZM97.44,185.17c-.01-.48-.13-.84-.37-1.09s-.52-.37-.86-.37c-.36,0-.66.13-.89.39s-.35.62-.35,1.07h2.46Z"/>
    <path class="cls-28" d="M103.71,188.81v-8.59h1.73v8.59h-1.73Z"/>
    <path class="cls-28" d="M112.74,188.81h-1.65v-3.18c0-.67-.04-1.11-.11-1.3s-.18-.35-.34-.46-.35-.16-.57-.16c-.29,0-.54.08-.77.23s-.38.36-.47.62-.13.73-.13,1.43v2.82h-1.65v-6.22h1.53v.91c.54-.7,1.23-1.05,2.05-1.05.36,0,.7.07,1,.2s.53.3.68.5.26.43.32.69.09.63.09,1.11v3.87Z"/>
    <path class="cls-28" d="M120.12,188.81h-1.53v-.91c-.25.36-.55.62-.9.79s-.69.26-1.05.26c-.71,0-1.33-.29-1.84-.86s-.76-1.38-.76-2.41.25-1.86.74-2.41,1.12-.82,1.88-.82c.7,0,1.3.29,1.8.87v-3.09h1.65v8.59ZM115.73,185.57c0,.66.09,1.14.28,1.44.27.43.64.64,1.11.64.38,0,.7-.16.97-.48s.4-.8.4-1.44c0-.71-.13-1.23-.39-1.54s-.59-.47-.99-.47-.72.16-.98.47-.4.77-.4,1.39Z"/>
    <path class="cls-28" d="M125.35,186.83l1.64.28c-.21.6-.54,1.06-1,1.37s-1.02.47-1.71.47c-1.08,0-1.88-.35-2.4-1.06-.41-.57-.62-1.28-.62-2.14,0-1.03.27-1.84.81-2.42s1.22-.88,2.04-.88c.93,0,1.66.31,2.19.92s.79,1.55.77,2.81h-4.12c.01.49.14.87.4,1.14s.57.41.95.41c.26,0,.47-.07.65-.21s.31-.37.4-.68ZM125.44,185.17c-.01-.48-.13-.84-.37-1.09s-.52-.37-.86-.37c-.36,0-.66.13-.89.39s-.35.62-.35,1.07h2.46Z"/>
    <path class="cls-28" d="M127.63,188.81l2.24-3.21-2.15-3.02h2.01l1.1,1.71,1.16-1.71h1.93l-2.11,2.95,2.3,3.28h-2.02l-1.27-1.93-1.28,1.93h-1.93Z"/>
    <path class="cls-28" d="M73.96,202.92h-.94c-.5-.75-.88-1.53-1.14-2.34s-.39-1.6-.39-2.35c0-.94.16-1.83.48-2.67.28-.73.63-1.4,1.06-2.02h.94c-.45.99-.75,1.83-.92,2.52s-.25,1.42-.25,2.2c0,.53.05,1.08.15,1.64s.24,1.09.41,1.6c.11.33.31.81.6,1.43Z"/>
    <path class="cls-28" d="M79.35,199.54v1.27h-4.81c.05-.48.21-.94.47-1.37s.77-1,1.54-1.72c.62-.58,1-.97,1.14-1.17.19-.28.28-.56.28-.84,0-.31-.08-.54-.25-.71s-.39-.25-.68-.25-.51.09-.68.26-.27.46-.29.86l-1.37-.14c.08-.76.34-1.3.77-1.63s.97-.49,1.61-.49c.71,0,1.26.19,1.67.57s.61.85.61,1.42c0,.32-.06.63-.17.92s-.3.6-.55.92c-.17.21-.47.52-.9.91s-.71.66-.82.79-.21.26-.28.38h2.72Z"/>
    <path class="cls-28" d="M83.17,198.76l1.47-1.47-1.48-1.48.91-.91,1.48,1.48,1.47-1.47.88.89-1.47,1.47,1.49,1.49-.91.91-1.49-1.49-1.47,1.47-.88-.89Z"/>
    <path class="cls-28" d="M91.99,200.81v-7.16h1.41l2.93,4.78v-4.78h1.34v7.16h-1.45l-2.89-4.67v4.67h-1.34Z"/>
    <path class="cls-28" d="M104.97,199.16l1.37.23c-.18.5-.45.88-.83,1.15s-.85.39-1.42.39c-.9,0-1.57-.29-2-.88-.34-.47-.51-1.07-.51-1.79,0-.86.22-1.53.67-2.02s1.02-.73,1.7-.73c.77,0,1.38.25,1.83.76s.66,1.29.64,2.34h-3.44c0,.41.12.72.33.95s.48.34.79.34c.21,0,.4-.06.54-.18s.26-.31.33-.57ZM105.05,197.77c0-.4-.11-.7-.31-.91s-.43-.31-.71-.31c-.3,0-.55.11-.74.33s-.29.51-.29.89h2.05Z"/>
    <path class="cls-28" d="M112.29,200.81h-1.27v-.76c-.21.3-.46.52-.75.66s-.58.22-.87.22c-.6,0-1.11-.24-1.53-.72s-.64-1.15-.64-2.01.21-1.55.62-2,.94-.69,1.57-.69c.58,0,1.08.24,1.5.72v-2.58h1.37v7.16ZM108.62,198.11c0,.55.08.95.23,1.2.22.36.53.54.93.54.32,0,.58-.13.81-.4s.33-.67.33-1.2c0-.6-.11-1.02-.32-1.29s-.49-.39-.83-.39-.6.13-.82.39-.33.65-.33,1.16Z"/>
    <path class="cls-28" d="M113.51,201.15l1.57.19c.03.18.09.31.18.38.13.1.34.15.62.15.36,0,.63-.05.81-.16.12-.07.21-.19.27-.35.04-.11.06-.32.06-.63v-.76c-.41.56-.93.84-1.55.84-.7,0-1.25-.29-1.66-.88-.32-.47-.48-1.04-.48-1.74,0-.87.21-1.53.63-1.99s.94-.69,1.56-.69,1.17.28,1.59.84v-.73h1.28v4.65c0,.61-.05,1.07-.15,1.37s-.24.54-.42.71-.43.31-.73.41-.69.15-1.15.15c-.88,0-1.5-.15-1.87-.45s-.55-.68-.55-1.15c0-.05,0-.1,0-.17ZM114.74,198.11c0,.55.11.95.32,1.21s.48.38.79.38c.34,0,.62-.13.85-.39s.35-.65.35-1.16-.11-.94-.33-1.2-.5-.39-.84-.39-.6.13-.81.38-.32.65-.32,1.17Z"/>
    <path class="cls-28" d="M122.75,199.16l1.37.23c-.18.5-.45.88-.83,1.15s-.85.39-1.42.39c-.9,0-1.57-.29-2-.88-.34-.47-.51-1.07-.51-1.79,0-.86.22-1.53.67-2.02s1.02-.73,1.7-.73c.77,0,1.38.25,1.83.76s.66,1.29.64,2.34h-3.44c0,.41.12.72.33.95s.48.34.79.34c.21,0,.4-.06.54-.18s.26-.31.33-.57ZM122.83,197.77c0-.4-.11-.7-.31-.91s-.43-.31-.71-.31c-.3,0-.55.11-.74.33s-.29.51-.29.89h2.05Z"/>
    <path class="cls-28" d="M124.83,199.33l1.38-.21c.06.27.18.47.36.61s.43.21.75.21c.35,0,.62-.06.8-.2.12-.09.18-.21.18-.37,0-.1-.03-.19-.1-.26-.07-.06-.22-.13-.46-.18-1.11-.24-1.81-.47-2.1-.67-.41-.28-.62-.67-.62-1.17,0-.45.18-.83.53-1.13s.9-.46,1.65-.46,1.24.12,1.58.35.58.57.71,1.03l-1.29.24c-.06-.2-.16-.36-.31-.46s-.38-.16-.66-.16c-.36,0-.62.05-.78.15-.1.07-.16.16-.16.28,0,.1.05.18.14.25.12.09.55.22,1.28.39s1.24.37,1.53.61c.29.24.43.58.43,1.02,0,.48-.2.88-.6,1.23s-.98.51-1.76.51c-.71,0-1.27-.14-1.68-.43s-.68-.68-.81-1.17Z"/>
    <path class="cls-28" d="M130.49,202.92c.27-.58.46-1.02.57-1.33s.21-.67.31-1.07.16-.79.21-1.15.07-.73.07-1.12c0-.77-.08-1.51-.25-2.2s-.47-1.53-.92-2.52h.93c.49.7.87,1.44,1.15,2.23s.41,1.58.41,2.39c0,.68-.11,1.41-.32,2.19-.24.87-.65,1.73-1.21,2.58h-.95Z"/>
  </g>
  <g>
    <rect class="cls-27" x="215.03" y="45.6" width="219.03" height="187.96" rx="13.32" ry="13.32"/>
    <rect class="cls-8" x="215.03" y="45.6" width="219.03" height="187.96" rx="13.32" ry="13.32"/>
  </g>
  <text class="cls-31" transform="translate(244.8 64.51)"><tspan x="0" y="0">GAE-GAT End-to-End Model</tspan></text>
  <text class="cls-31" transform="translate(241.72 113.49)"><tspan x="0" y="0">Encoder</tspan></text>
  <rect class="cls-26" x="235.64" y="123.45" width="24.19" height="87.89" rx="5.24" ry="5.24"/>
  <text class="cls-34" transform="translate(249.89 205.15) rotate(-90)"><tspan x="0" y="0">GATConv Layer 1</tspan></text>
  <rect class="cls-26" x="271.79" y="123.45" width="24.19" height="87.89" rx="5.23" ry="5.23"/>
  <text class="cls-34" transform="translate(286.05 205.15) rotate(-90)"><tspan x="0" y="0">GATConv Layer 2</tspan></text>
  <polygon class="cls-28" points="325.35 174.15 332.11 167.4 325.35 160.65 325.35 164.58 315.27 164.58 315.27 170.21 325.35 170.21 325.35 174.15"/>
  <polygon class="cls-28" points="195.87 173.88 202.64 167.13 195.87 160.38 195.87 164.32 185.8 164.32 185.8 169.94 195.87 169.94 195.87 173.88"/>
  <text class="cls-31" transform="translate(343.92 134.7)"><tspan x="0" y="0">Node </tspan><tspan x="-19.34" y="14.4">Embeddings</tspan></text>
  <text class="cls-30" transform="translate(355.09 171.73)"><tspan x="0" y="0">Z</tspan></text>
  <line class="cls-5" x1="247.73" y1="216.79" x2="247.73" y2="290.59"/>
  <g>
    <line class="cls-3" x1="247.73" y1="216.54" x2="247.73" y2="270.89"/>
    <polygon class="cls-28" points="244.34 266.9 247.73 270.3 251.12 266.9 251.12 269.78 247.73 273.17 244.34 269.78 244.34 266.9"/>
  </g>
  <g>
    <line class="cls-3" x1="283.89" y1="216.54" x2="283.89" y2="270.89"/>
    <polygon class="cls-28" points="280.5 266.9 283.89 270.3 287.28 266.9 287.28 269.78 283.89 273.17 280.5 269.78 280.5 266.9"/>
  </g>
  <text class="cls-31" transform="translate(291.31 250.67)"><tspan x="0" y="0">Extract Attention</tspan></text>
  <g>
    <rect class="cls-25" x="232.15" y="280.45" width="67.31" height="35.6" rx="5.26" ry="5.26"/>
    <text class="cls-32" transform="translate(243.87 294.32)"><tspan x="0" y="0">Attention</tspan><tspan x="3.89" y="12" xml:space="preserve"> Weight</tspan></text>
  </g>
  <g>
    <line class="cls-3" x1="311.56" y1="296.92" x2="326.89" y2="296.92"/>
    <polygon class="cls-28" points="322.9 300.31 326.3 296.92 322.9 293.53 325.78 293.53 329.17 296.92 325.78 300.31 322.9 300.31"/>
  </g>
  <g>
    <rect class="cls-25" x="339.35" y="279.54" width="67.31" height="35.6" rx="5.24" ry="5.24"/>
    <text class="cls-32" transform="translate(361.9 293.41)"><tspan x="0" y="0">GNN</tspan><tspan x="-18.62" y="12">Explaination</tspan></text>
  </g>
  <g>
    <rect class="cls-27" x="462" y="45.6" width="545.31" height="295.73" rx="13.32" ry="13.32"/>
    <rect class="cls-2" x="462" y="45.6" width="545.31" height="295.73" rx="13.32" ry="13.32"/>
  </g>
  <g>
    <line class="cls-3" x1="483.05" y1="84.75" x2="411.75" y2="84.75"/>
    <polygon class="cls-28" points="415.74 81.35 412.35 84.75 415.74 88.14 412.86 88.14 409.47 84.75 412.86 81.35 415.74 81.35"/>
  </g>
  <text class="cls-31" transform="translate(573.54 79.14)"><tspan x="0" y="0">Backpropagation</tspan></text>
  <text/>
  <g>
    <rect class="cls-29" x="650.72" y="116.88" width="136.51" height="206.62"/>
    <g>
      <polyline class="cls-3" points="787.23 317.49 787.23 323.49 781.23 323.49"/>
      <line class="cls-13" x1="779.28" y1="323.49" x2="657.69" y2="323.49"/>
      <polyline class="cls-3" points="656.72 323.49 650.72 323.49 650.72 317.49"/>
      <line class="cls-18" x1="650.72" y1="315.53" x2="650.72" y2="123.86"/>
      <polyline class="cls-3" points="650.72 122.88 650.72 116.88 656.72 116.88"/>
      <line class="cls-13" x1="658.66" y1="116.88" x2="780.26" y2="116.88"/>
      <polyline class="cls-3" points="781.23 116.88 787.23 116.88 787.23 122.88"/>
      <line class="cls-18" x1="787.23" y1="124.84" x2="787.23" y2="316.51"/>
    </g>
  </g>
  <text/>
  <g>
    <path class="cls-28" d="M665.37,134.76v-1.33h3.43v3.14c-.33.32-.82.61-1.45.85-.63.25-1.27.37-1.92.37-.82,0-1.54-.17-2.15-.52-.61-.35-1.07-.84-1.38-1.48-.31-.64-.46-1.34-.46-2.1,0-.82.17-1.55.52-2.19s.85-1.13,1.51-1.47c.51-.26,1.13-.39,1.89-.39.98,0,1.74.21,2.29.61.55.41.9.98,1.06,1.7l-1.58.3c-.11-.39-.32-.69-.63-.92-.31-.22-.69-.34-1.15-.34-.69,0-1.25.22-1.66.66s-.62,1.09-.62,1.96c0,.93.21,1.64.62,2.1.42.47.96.7,1.63.7.33,0,.67-.07,1-.2.33-.13.62-.29.86-.48v-1h-1.82Z"/>
    <path class="cls-28" d="M671.7,137.65h-1.51v-5.7h1.4v.81c.24-.38.46-.64.65-.76s.41-.18.65-.18c.34,0,.67.09.99.28l-.47,1.32c-.25-.16-.49-.25-.71-.25s-.39.06-.54.17c-.15.12-.26.33-.35.63s-.13.94-.13,1.91v1.76Z"/>
    <path class="cls-28" d="M675.67,133.69l-1.37-.25c.15-.55.42-.96.79-1.22s.93-.4,1.68-.4c.67,0,1.17.08,1.5.24.33.16.56.36.7.61.13.25.2.7.2,1.35l-.02,1.76c0,.5.02.87.07,1.11.05.24.14.49.27.77h-1.49c-.04-.1-.09-.25-.14-.45-.03-.09-.04-.15-.05-.18-.26.25-.53.44-.83.56-.29.13-.61.19-.94.19-.59,0-1.05-.16-1.39-.48-.34-.32-.51-.72-.51-1.21,0-.32.08-.61.23-.86.15-.25.37-.45.65-.58.28-.13.68-.25,1.2-.35.71-.13,1.19-.26,1.47-.37v-.15c0-.29-.07-.5-.21-.62-.14-.12-.41-.19-.81-.19-.27,0-.48.05-.63.16-.15.11-.27.29-.37.56ZM677.69,134.91c-.19.06-.5.14-.92.23s-.69.18-.82.26c-.2.14-.3.32-.3.53s.08.39.24.55.36.23.6.23c.27,0,.53-.09.78-.27.18-.14.3-.3.36-.5.04-.13.06-.37.06-.74v-.3Z"/>
    <path class="cls-28" d="M680.61,131.95h1.41v.84c.18-.29.43-.52.74-.7.31-.18.66-.27,1.04-.27.66,0,1.22.26,1.69.78s.69,1.24.69,2.17-.23,1.69-.7,2.22c-.47.53-1.03.79-1.69.79-.32,0-.6-.06-.86-.19s-.53-.34-.81-.64v2.87h-1.51v-7.87ZM682.11,134.7c0,.64.13,1.11.38,1.42.25.31.56.46.93.46s.64-.14.88-.42c.23-.28.35-.74.35-1.38,0-.6-.12-1.04-.36-1.33s-.54-.44-.89-.44-.67.14-.92.43c-.24.29-.37.71-.37,1.27Z"/>
    <path class="cls-28" d="M688.88,129.78v2.9c.49-.57,1.07-.85,1.75-.85.35,0,.66.06.94.19s.49.29.63.49.24.42.29.67.08.62.08,1.13v3.35h-1.51v-3.01c0-.6-.03-.98-.09-1.14s-.16-.29-.3-.38c-.14-.09-.33-.14-.54-.14-.25,0-.47.06-.67.18-.2.12-.34.31-.43.55-.09.25-.14.61-.14,1.09v2.86h-1.51v-7.87h1.51Z"/>
    <path class="cls-28" d="M697.17,137.65v-7.87h3.35c.84,0,1.45.07,1.83.21.38.14.69.39.92.75.23.36.34.78.34,1.24,0,.59-.17,1.08-.52,1.46-.35.39-.87.63-1.56.73.34.2.63.42.85.66s.53.67.91,1.28l.96,1.54h-1.9l-1.15-1.71c-.41-.61-.69-1-.84-1.16-.15-.16-.31-.27-.48-.33-.17-.06-.43-.09-.8-.09h-.32v3.29h-1.59ZM698.76,133.11h1.18c.76,0,1.24-.03,1.43-.1.19-.06.34-.18.45-.33s.16-.35.16-.59c0-.27-.07-.48-.21-.64-.14-.16-.34-.27-.6-.31-.13-.02-.52-.03-1.16-.03h-1.24v2Z"/>
    <path class="cls-28" d="M708.4,135.84l1.5.25c-.19.55-.5.97-.92,1.26-.42.29-.94.43-1.57.43-.99,0-1.73-.32-2.2-.97-.38-.52-.56-1.17-.56-1.97,0-.95.25-1.69.74-2.22.49-.54,1.12-.8,1.88-.8.85,0,1.52.28,2.01.84.49.56.73,1.42.7,2.58h-3.78c0,.45.13.8.37,1.04.23.25.52.37.87.37.24,0,.44-.06.6-.19s.28-.34.37-.62ZM708.48,134.31c-.01-.44-.12-.77-.34-1-.21-.23-.48-.34-.78-.34-.33,0-.6.12-.82.36s-.32.57-.32.98h2.26Z"/>
    <path class="cls-28" d="M716.19,133.63l-1.49.27c-.05-.3-.16-.52-.34-.67-.18-.15-.41-.23-.69-.23-.38,0-.68.13-.9.39-.22.26-.34.69-.34,1.3,0,.68.11,1.15.34,1.43s.53.42.92.42c.29,0,.52-.08.7-.24.18-.16.31-.44.39-.84l1.48.25c-.15.68-.45,1.19-.89,1.54s-1.02.52-1.76.52c-.83,0-1.5-.26-2-.79s-.74-1.25-.74-2.19.25-1.67.75-2.2c.5-.52,1.17-.79,2.02-.79.69,0,1.25.15,1.66.45.41.3.7.75.88,1.37Z"/>
    <path class="cls-28" d="M716.98,134.72c0-.5.12-.99.37-1.46.25-.47.6-.83,1.05-1.07s.96-.37,1.52-.37c.86,0,1.57.28,2.12.84.55.56.83,1.27.83,2.12s-.28,1.58-.83,2.15c-.56.57-1.26.85-2.1.85-.52,0-1.02-.12-1.5-.35s-.83-.58-1.08-1.04c-.25-.46-.37-1.01-.37-1.67ZM718.53,134.8c0,.57.13,1,.4,1.3.27.3.6.45.99.45s.72-.15.99-.45.4-.74.4-1.31-.13-.99-.4-1.29-.6-.45-.99-.45-.73.15-.99.45c-.27.3-.4.73-.4,1.3Z"/>
    <path class="cls-28" d="M729.24,137.65h-1.51v-2.91c0-.62-.03-1.01-.1-1.2-.06-.18-.17-.32-.31-.42-.14-.1-.32-.15-.52-.15-.26,0-.5.07-.7.21-.21.14-.35.33-.43.57s-.12.67-.12,1.31v2.58h-1.51v-5.7h1.4v.84c.5-.64,1.12-.97,1.88-.97.33,0,.64.06.91.18.28.12.48.27.63.46s.24.4.29.63.08.57.08,1.02v3.54Z"/>
    <path class="cls-28" d="M730.24,136.02l1.51-.23c.06.29.2.52.39.67.2.15.47.23.83.23.39,0,.68-.07.88-.21.13-.1.2-.23.2-.4,0-.11-.04-.21-.11-.28-.08-.07-.24-.14-.5-.2-1.22-.27-1.99-.51-2.31-.74-.45-.31-.68-.74-.68-1.28,0-.49.2-.91.59-1.25s1-.5,1.82-.5,1.36.13,1.74.38.64.63.78,1.13l-1.42.26c-.06-.22-.18-.39-.35-.51s-.41-.18-.73-.18c-.4,0-.68.06-.85.17-.11.08-.17.18-.17.31,0,.11.05.2.15.27.14.1.61.24,1.41.42s1.37.41,1.68.67c.32.27.47.64.47,1.12,0,.52-.22.97-.66,1.35s-1.08.56-1.94.56c-.78,0-1.39-.16-1.85-.47s-.75-.74-.89-1.28Z"/>
    <path class="cls-28" d="M739.5,131.95v1.2h-1.03v2.3c0,.47,0,.74.03.81.02.08.06.14.13.19.07.05.15.08.25.08.14,0,.34-.05.61-.15l.13,1.17c-.35.15-.75.23-1.19.23-.27,0-.52-.05-.74-.14-.22-.09-.38-.21-.48-.35-.1-.15-.17-.34-.21-.59-.03-.18-.05-.53-.05-1.06v-2.49h-.69v-1.2h.69v-1.13l1.51-.88v2.01h1.03Z"/>
    <path class="cls-28" d="M741.99,137.65h-1.51v-5.7h1.4v.81c.24-.38.46-.64.65-.76s.41-.18.65-.18c.34,0,.67.09.99.28l-.47,1.32c-.25-.16-.49-.25-.71-.25s-.39.06-.54.17c-.15.12-.26.33-.35.63s-.13.94-.13,1.91v1.76Z"/>
    <path class="cls-28" d="M748.58,137.65v-.85c-.21.3-.48.54-.82.72-.34.18-.7.26-1.07.26s-.73-.08-1.03-.25-.52-.4-.66-.71c-.14-.3-.2-.73-.2-1.26v-3.61h1.51v2.62c0,.8.03,1.29.08,1.47.06.18.16.32.3.43.15.11.33.16.56.16.26,0,.49-.07.69-.21.21-.14.34-.32.42-.53.07-.21.11-.72.11-1.54v-2.41h1.51v5.7h-1.4Z"/>
    <path class="cls-28" d="M756.52,133.63l-1.49.27c-.05-.3-.16-.52-.34-.67-.18-.15-.41-.23-.69-.23-.38,0-.68.13-.9.39-.22.26-.34.69-.34,1.3,0,.68.11,1.15.34,1.43s.53.42.92.42c.29,0,.52-.08.7-.24.18-.16.31-.44.39-.84l1.48.25c-.15.68-.45,1.19-.89,1.54s-1.02.52-1.76.52c-.83,0-1.5-.26-2-.79s-.74-1.25-.74-2.19.25-1.67.75-2.2c.5-.52,1.17-.79,2.02-.79.69,0,1.25.15,1.66.45.41.3.7.75.88,1.37Z"/>
    <path class="cls-28" d="M760.28,131.95v1.2h-1.03v2.3c0,.47,0,.74.03.81.02.08.06.14.13.19.07.05.15.08.25.08.14,0,.34-.05.61-.15l.13,1.17c-.35.15-.75.23-1.19.23-.27,0-.52-.05-.74-.14-.22-.09-.38-.21-.48-.35-.1-.15-.17-.34-.21-.59-.03-.18-.05-.53-.05-1.06v-2.49h-.69v-1.2h.69v-1.13l1.51-.88v2.01h1.03Z"/>
    <path class="cls-28" d="M761.33,131.17v-1.4h1.51v1.4h-1.51ZM761.33,137.65v-5.7h1.51v5.7h-1.51Z"/>
    <path class="cls-28" d="M764.04,134.72c0-.5.12-.99.37-1.46.25-.47.6-.83,1.05-1.07s.96-.37,1.52-.37c.86,0,1.57.28,2.12.84.55.56.83,1.27.83,2.12s-.28,1.58-.83,2.15c-.56.57-1.26.85-2.1.85-.52,0-1.02-.12-1.5-.35s-.83-.58-1.08-1.04c-.25-.46-.37-1.01-.37-1.67ZM765.58,134.8c0,.57.13,1,.4,1.3.27.3.6.45.99.45s.72-.15.99-.45.4-.74.4-1.31-.13-.99-.4-1.29-.6-.45-.99-.45-.73.15-.99.45c-.27.3-.4.73-.4,1.3Z"/>
    <path class="cls-28" d="M776.29,137.65h-1.51v-2.91c0-.62-.03-1.01-.1-1.2-.06-.18-.17-.32-.31-.42-.14-.1-.32-.15-.52-.15-.26,0-.5.07-.7.21-.21.14-.35.33-.43.57s-.12.67-.12,1.31v2.58h-1.51v-5.7h1.4v.84c.5-.64,1.12-.97,1.88-.97.33,0,.64.06.91.18.28.12.48.27.63.46s.24.4.29.63.08.57.08,1.02v3.54Z"/>
  </g>
  <rect class="cls-25" x="685.34" y="149.82" width="67.31" height="35.6" rx="5.28" ry="5.28"/>
  <text class="cls-34" transform="translate(709.44 164.39)"><tspan x="0" y="0">MLP</tspan><tspan x="-8.51" y="10.8">Decoder</tspan></text>
  <rect class="cls-25" x="685.32" y="224.05" width="67.31" height="23.52" rx="5.24" ry="5.24"/>
  <text class="cls-34" transform="translate(701.47 237.98)"><tspan x="0" y="0">L_recon</tspan></text>
  <g>
    <line class="cls-3" x1="718.97" y1="196.05" x2="718.97" y2="211.14"/>
    <polygon class="cls-28" points="715.58 207.15 718.97 210.55 722.36 207.15 722.36 210.03 718.97 213.42 715.58 210.03 715.58 207.15"/>
  </g>
  <text class="cls-33" transform="translate(663.36 273.29)"><tspan x="0" y="0">Graph Regularization</tspan></text>
  <rect class="cls-25" x="685.32" y="290.62" width="67.31" height="23.52" rx="5.25" ry="5.25"/>
  <text class="cls-34" transform="translate(706.72 304.49)"><tspan x="0" y="0">L_reg</tspan></text>
  <path class="cls-3" d="M813.7,235.81h-61.07"/>
  <path class="cls-3" d="M813.7,302.81h-61.07"/>
  <g>
    <line class="cls-3" x1="813.7" y1="303.57" x2="813.7" y2="119.16"/>
    <polygon class="cls-28" points="817.09 123.15 813.7 119.75 810.31 123.15 810.31 120.27 813.7 116.88 817.09 120.27 817.09 123.15"/>
  </g>
  <g>
    <rect class="cls-29" x="837.39" y="116.88" width="136.51" height="207.66"/>
    <g>
      <polyline class="cls-3" points="973.91 318.54 973.91 324.54 967.91 324.54"/>
      <line class="cls-13" x1="965.96" y1="324.54" x2="844.37" y2="324.54"/>
      <polyline class="cls-3" points="843.39 324.54 837.39 324.54 837.39 318.54"/>
      <line class="cls-16" x1="837.39" y1="316.56" x2="837.39" y2="123.86"/>
      <polyline class="cls-3" points="837.39 122.88 837.39 116.88 843.39 116.88"/>
      <line class="cls-13" x1="845.34" y1="116.88" x2="966.93" y2="116.88"/>
      <polyline class="cls-3" points="967.91 116.88 973.91 116.88 973.91 122.88"/>
      <line class="cls-16" x1="973.91" y1="124.85" x2="973.91" y2="317.55"/>
    </g>
  </g>
  <g>
    <path class="cls-28" d="M864.27,129.78h2.91c.65,0,1.15.05,1.5.15.46.14.86.38,1.19.72.33.35.58.77.75,1.28.17.5.26,1.12.26,1.86,0,.65-.08,1.21-.24,1.68-.2.57-.48,1.04-.84,1.39-.28.27-.65.48-1.12.63-.35.11-.82.17-1.41.17h-2.99v-7.87ZM865.86,131.11v5.21h1.19c.44,0,.76-.02.96-.08.26-.06.47-.17.64-.33.17-.15.31-.41.42-.76.11-.35.16-.83.16-1.44s-.05-1.08-.16-1.4c-.11-.33-.26-.58-.45-.76s-.44-.31-.74-.37c-.22-.05-.66-.08-1.3-.08h-.71Z"/>
    <path class="cls-28" d="M875.51,135.84l1.5.25c-.19.55-.5.97-.92,1.26s-.94.43-1.57.43c-.99,0-1.73-.32-2.2-.97-.38-.52-.56-1.17-.56-1.97,0-.95.25-1.69.74-2.22s1.12-.8,1.88-.8c.85,0,1.52.28,2.01.84.49.56.73,1.42.7,2.58h-3.78c0,.45.13.8.37,1.04.23.25.52.37.87.37.24,0,.44-.06.6-.19s.28-.34.37-.62ZM875.6,134.31c-.01-.44-.12-.77-.34-1-.21-.23-.48-.34-.78-.34-.33,0-.6.12-.82.36-.21.24-.32.57-.32.98h2.26Z"/>
    <path class="cls-28" d="M881.63,135.84l1.5.25c-.19.55-.5.97-.92,1.26s-.94.43-1.57.43c-.99,0-1.73-.32-2.2-.97-.38-.52-.56-1.17-.56-1.97,0-.95.25-1.69.74-2.22s1.12-.8,1.88-.8c.85,0,1.52.28,2.01.84.49.56.73,1.42.7,2.58h-3.78c0,.45.13.8.37,1.04.23.25.52.37.87.37.24,0,.44-.06.6-.19s.28-.34.37-.62ZM881.72,134.31c-.01-.44-.12-.77-.34-1-.21-.23-.48-.34-.78-.34-.33,0-.6.12-.82.36-.21.24-.32.57-.32.98h2.26Z"/>
    <path class="cls-28" d="M884.4,131.95h1.41v.84c.18-.29.43-.52.74-.7.31-.18.66-.27,1.04-.27.66,0,1.22.26,1.69.78.46.52.69,1.24.69,2.17s-.23,1.69-.7,2.22c-.47.53-1.03.79-1.69.79-.32,0-.6-.06-.86-.19-.26-.12-.53-.34-.81-.64v2.87h-1.51v-7.87ZM885.9,134.7c0,.64.13,1.12.38,1.42.25.31.56.46.93.46s.64-.14.88-.42c.23-.28.35-.74.35-1.38,0-.6-.12-1.04-.36-1.33s-.54-.43-.89-.43-.67.14-.92.43c-.24.29-.37.71-.37,1.26Z"/>
    <path class="cls-28" d="M899.27,134.76l1.54.49c-.24.86-.63,1.5-1.18,1.92-.55.42-1.25.62-2.09.62-1.05,0-1.91-.36-2.58-1.07-.67-.71-1.01-1.69-1.01-2.93,0-1.31.34-2.33,1.01-3.05.68-.72,1.57-1.09,2.67-1.09.96,0,1.75.29,2.35.85.36.34.63.82.81,1.45l-1.57.38c-.09-.41-.29-.73-.58-.97-.3-.24-.65-.35-1.08-.35-.58,0-1.06.21-1.42.63s-.54,1.1-.54,2.04c0,1,.18,1.7.54,2.13.36.42.82.63,1.4.63.42,0,.79-.13,1.09-.4.3-.27.52-.69.65-1.27Z"/>
    <path class="cls-28" d="M902.16,137.65v-7.87h1.51v7.87h-1.51Z"/>
    <path class="cls-28" d="M908.97,137.65v-.85c-.21.3-.48.54-.82.72-.34.18-.7.26-1.07.26s-.73-.08-1.03-.25c-.3-.17-.52-.4-.66-.71-.14-.3-.2-.72-.2-1.26v-3.61h1.51v2.62c0,.8.03,1.29.08,1.47.06.18.16.32.3.43.15.11.33.16.56.16.26,0,.49-.07.69-.21.21-.14.34-.32.42-.53.07-.21.11-.72.11-1.54v-2.41h1.51v5.7h-1.4Z"/>
    <path class="cls-28" d="M911.41,136.02l1.51-.23c.06.29.2.52.39.67.2.15.47.23.83.23.39,0,.68-.07.88-.21.13-.1.2-.23.2-.4,0-.12-.04-.21-.11-.29-.08-.07-.24-.14-.5-.2-1.22-.27-1.99-.51-2.31-.74-.45-.31-.68-.74-.68-1.28,0-.49.2-.91.59-1.25.39-.34,1-.5,1.82-.5s1.36.13,1.74.38c.38.25.64.63.78,1.13l-1.42.26c-.06-.22-.18-.39-.35-.51s-.41-.18-.73-.18c-.4,0-.68.06-.85.17-.11.08-.17.18-.17.31,0,.11.05.2.15.27.14.1.61.24,1.41.42s1.37.41,1.68.67c.32.27.47.64.47,1.12,0,.52-.22.97-.66,1.35s-1.08.56-1.94.56c-.78,0-1.39-.16-1.85-.47-.45-.32-.75-.74-.89-1.28Z"/>
    <path class="cls-28" d="M920.67,131.95v1.2h-1.03v2.3c0,.46,0,.74.03.81s.06.14.13.19c.07.05.15.08.25.08.14,0,.34-.05.61-.14l.13,1.17c-.35.15-.75.23-1.19.23-.27,0-.52-.05-.74-.14-.22-.09-.38-.21-.48-.35-.1-.15-.17-.34-.21-.59-.03-.17-.05-.53-.05-1.06v-2.49h-.69v-1.2h.69v-1.13l1.51-.88v2.01h1.03Z"/>
    <path class="cls-28" d="M925.02,135.84l1.5.25c-.19.55-.5.97-.92,1.26s-.94.43-1.57.43c-.99,0-1.73-.32-2.2-.97-.38-.52-.56-1.17-.56-1.97,0-.95.25-1.69.74-2.22s1.12-.8,1.88-.8c.85,0,1.52.28,2.01.84.49.56.73,1.42.7,2.58h-3.78c0,.45.13.8.37,1.04.23.25.52.37.87.37.24,0,.44-.06.6-.19s.28-.34.37-.62ZM925.11,134.31c-.01-.44-.12-.77-.34-1-.21-.23-.48-.34-.78-.34-.33,0-.6.12-.82.36-.21.24-.32.57-.32.98h2.26Z"/>
    <path class="cls-28" d="M929.28,137.65h-1.51v-5.7h1.4v.81c.24-.38.46-.64.65-.76.19-.12.41-.18.65-.18.34,0,.67.09.99.28l-.47,1.32c-.25-.17-.49-.25-.71-.25s-.39.06-.54.17c-.15.12-.26.33-.35.63-.08.3-.13.94-.13,1.91v1.76Z"/>
    <path class="cls-28" d="M932.12,131.17v-1.4h1.51v1.4h-1.51ZM932.12,137.65v-5.7h1.51v5.7h-1.51Z"/>
    <path class="cls-28" d="M940.36,137.65h-1.51v-2.91c0-.62-.03-1.01-.1-1.2s-.17-.32-.31-.42c-.14-.1-.32-.15-.52-.15-.26,0-.5.07-.7.21-.21.14-.35.33-.43.57s-.12.67-.12,1.31v2.58h-1.51v-5.7h1.4v.84c.5-.64,1.12-.97,1.88-.97.33,0,.64.06.91.18s.48.27.63.46c.14.19.24.4.29.63s.08.58.08,1.02v3.54Z"/>
    <path class="cls-28" d="M941.75,138.03l1.72.21c.03.2.09.34.2.41.14.11.37.16.68.16.39,0,.69-.06.89-.18.13-.08.23-.21.3-.38.05-.13.07-.36.07-.69v-.83c-.45.62-1.02.92-1.71.92-.77,0-1.37-.32-1.82-.97-.35-.51-.53-1.15-.53-1.91,0-.96.23-1.69.69-2.19s1.03-.76,1.72-.76,1.29.31,1.75.93v-.8h1.41v5.12c0,.67-.06,1.18-.17,1.51-.11.33-.27.59-.47.78-.2.19-.47.34-.8.45s-.76.16-1.27.16c-.97,0-1.65-.17-2.06-.5-.41-.33-.61-.75-.61-1.26,0-.05,0-.11,0-.18ZM943.1,134.68c0,.61.12,1.05.35,1.33.23.28.52.42.87.42.37,0,.68-.14.94-.43.25-.29.38-.72.38-1.28s-.12-1.03-.37-1.32c-.24-.29-.55-.43-.92-.43s-.66.14-.89.42-.35.71-.35,1.29Z"/>
  </g>
  <rect class="cls-25" x="871.99" y="149.82" width="67.31" height="35.6" rx="6.38" ry="6.38"/>
  <g>
    <path class="cls-28" d="M893.67,162.02l1.26.4c-.19.7-.51,1.23-.96,1.57-.45.34-1.02.51-1.71.51-.86,0-1.56-.29-2.11-.88-.55-.58-.83-1.38-.83-2.4,0-1.07.28-1.91.83-2.5.55-.59,1.28-.89,2.18-.89.79,0,1.43.23,1.92.7.29.28.51.67.66,1.19l-1.29.31c-.08-.33-.23-.6-.48-.79-.24-.19-.54-.29-.88-.29-.48,0-.87.17-1.16.51-.3.34-.45.9-.45,1.67,0,.81.15,1.39.44,1.74s.67.52,1.14.52c.35,0,.64-.11.89-.33s.43-.57.54-1.04Z"/>
    <path class="cls-28" d="M896.04,164.39v-6.44h1.23v6.44h-1.23Z"/>
    <path class="cls-28" d="M901.61,164.39v-.7c-.17.25-.39.45-.67.59-.28.14-.57.22-.88.22s-.59-.07-.84-.21-.43-.33-.54-.58c-.11-.25-.17-.59-.17-1.03v-2.95h1.24v2.14c0,.66.02,1.06.07,1.21.04.15.13.27.25.35.12.09.27.13.46.13.21,0,.4-.06.57-.17.17-.12.28-.26.34-.43.06-.17.09-.59.09-1.26v-1.97h1.24v4.67h-1.15Z"/>
    <path class="cls-28" d="M903.6,163.06l1.24-.19c.05.24.16.42.32.55.16.12.39.19.68.19.32,0,.56-.06.72-.18.11-.08.16-.19.16-.33,0-.09-.03-.17-.09-.23-.06-.06-.2-.11-.41-.16-1-.22-1.63-.42-1.89-.6-.37-.25-.55-.6-.55-1.05,0-.4.16-.74.48-1.02s.81-.41,1.49-.41,1.11.1,1.42.31.52.52.64.92l-1.16.22c-.05-.18-.14-.32-.28-.42-.14-.1-.34-.15-.59-.15-.33,0-.56.05-.7.14-.09.06-.14.15-.14.25,0,.09.04.16.12.22.11.08.5.2,1.15.35.66.15,1.12.33,1.38.55.26.22.39.53.39.92,0,.43-.18.8-.54,1.1s-.89.46-1.59.46c-.64,0-1.14-.13-1.51-.39-.37-.26-.61-.61-.73-1.05Z"/>
    <path class="cls-28" d="M911.18,159.72v.98h-.84v1.88c0,.38,0,.6.02.67.02.06.05.11.11.16.06.04.13.06.21.06.11,0,.28-.04.5-.12l.11.96c-.29.12-.61.18-.97.18-.22,0-.42-.04-.6-.11-.18-.07-.31-.17-.39-.29-.08-.12-.14-.28-.17-.48-.03-.14-.04-.43-.04-.87v-2.03h-.57v-.98h.57v-.93l1.24-.72v1.65h.84Z"/>
    <path class="cls-28" d="M914.74,162.9l1.23.21c-.16.45-.41.79-.75,1.03-.34.24-.77.35-1.28.35-.81,0-1.41-.27-1.8-.8-.31-.42-.46-.96-.46-1.61,0-.77.2-1.38.61-1.82s.92-.66,1.53-.66c.69,0,1.24.23,1.64.69.4.46.59,1.16.58,2.11h-3.09c0,.37.11.65.3.85.19.2.43.31.71.31.19,0,.36-.05.49-.16s.23-.28.3-.51ZM914.81,161.66c0-.36-.1-.63-.28-.82-.18-.19-.39-.28-.64-.28-.27,0-.49.1-.67.29s-.26.46-.26.8h1.85Z"/>
    <path class="cls-28" d="M918.23,164.39h-1.23v-4.67h1.15v.66c.2-.31.37-.52.53-.62.16-.1.33-.15.53-.15.28,0,.55.08.81.23l-.38,1.08c-.21-.13-.4-.2-.58-.2s-.32.05-.44.14c-.12.1-.21.27-.28.52-.07.25-.1.77-.1,1.56v1.44Z"/>
    <path class="cls-28" d="M889.42,172.82l1.26.4c-.19.7-.51,1.23-.96,1.57-.45.34-1.02.51-1.71.51-.86,0-1.56-.29-2.11-.88-.55-.58-.83-1.38-.83-2.4,0-1.07.28-1.91.83-2.5.55-.59,1.28-.89,2.18-.89.79,0,1.43.23,1.92.7.29.28.51.67.66,1.19l-1.29.31c-.08-.33-.23-.6-.48-.79-.24-.19-.54-.29-.88-.29-.48,0-.87.17-1.16.51-.3.34-.45.9-.45,1.67,0,.81.15,1.39.44,1.74s.67.52,1.14.52c.35,0,.64-.11.89-.33s.43-.57.54-1.04Z"/>
    <path class="cls-28" d="M894.5,173.7l1.23.21c-.16.45-.41.79-.75,1.03-.34.24-.77.35-1.28.35-.81,0-1.41-.27-1.8-.8-.31-.42-.46-.96-.46-1.61,0-.77.2-1.38.61-1.82s.92-.66,1.53-.66c.69,0,1.24.23,1.64.69.4.46.59,1.16.58,2.11h-3.09c0,.37.11.65.3.85.19.2.43.31.71.31.19,0,.36-.05.49-.16s.23-.28.3-.51ZM894.57,172.46c0-.36-.1-.63-.28-.82-.18-.19-.39-.28-.64-.28-.27,0-.49.1-.67.29s-.26.46-.26.8h1.85Z"/>
    <path class="cls-28" d="M901.04,175.19h-1.23v-2.38c0-.5-.03-.83-.08-.98s-.14-.26-.26-.35c-.12-.08-.26-.12-.43-.12-.21,0-.41.06-.58.18-.17.12-.29.27-.35.47-.06.19-.09.55-.09,1.07v2.11h-1.24v-4.67h1.15v.69c.41-.53.92-.79,1.54-.79.27,0,.52.05.75.15s.4.22.51.38c.12.15.2.33.24.52.04.19.07.47.07.83v2.9Z"/>
    <path class="cls-28" d="M904.44,170.52v.98h-.84v1.88c0,.38,0,.6.02.67.02.06.05.11.11.16.06.04.13.06.21.06.11,0,.28-.04.5-.12l.11.96c-.29.12-.61.18-.97.18-.22,0-.42-.04-.6-.11-.18-.07-.31-.17-.39-.29-.08-.12-.14-.28-.17-.48-.03-.14-.04-.43-.04-.87v-2.03h-.57v-.98h.57v-.93l1.24-.72v1.65h.84Z"/>
    <path class="cls-28" d="M906.48,175.19h-1.23v-4.67h1.15v.66c.2-.31.37-.52.53-.62.16-.1.33-.15.53-.15.28,0,.55.08.81.23l-.38,1.08c-.21-.13-.4-.2-.58-.2s-.32.05-.44.14c-.12.1-.21.27-.28.52-.07.25-.1.77-.1,1.56v1.44Z"/>
    <path class="cls-28" d="M908.51,172.79c0-.41.1-.81.3-1.19.2-.38.49-.68.86-.88.37-.2.78-.3,1.24-.3.71,0,1.29.23,1.74.69.45.46.68,1.04.68,1.74s-.23,1.29-.68,1.76c-.46.46-1.03.7-1.72.7-.43,0-.84-.1-1.22-.29-.39-.19-.68-.48-.88-.85-.2-.37-.3-.83-.3-1.36ZM909.78,172.85c0,.46.11.82.33,1.06.22.25.49.37.81.37s.59-.12.81-.37c.22-.25.33-.6.33-1.07s-.11-.81-.33-1.05c-.22-.25-.49-.37-.81-.37s-.59.12-.81.37c-.22.25-.33.6-.33,1.06Z"/>
    <path class="cls-28" d="M914.29,169.89v-1.14h1.23v1.14h-1.23ZM914.29,175.19v-4.67h1.23v4.67h-1.23Z"/>
    <path class="cls-28" d="M921.07,175.19h-1.15v-.69c-.19.27-.42.47-.67.6-.26.13-.52.2-.78.2-.54,0-1-.22-1.38-.65-.38-.43-.57-1.03-.57-1.81s.19-1.39.56-1.8c.37-.41.84-.62,1.41-.62.52,0,.97.22,1.35.65v-2.32h1.23v6.44ZM917.78,172.75c0,.5.07.86.21,1.08.2.32.48.48.83.48.28,0,.53-.12.72-.36.2-.24.3-.6.3-1.08,0-.54-.1-.92-.29-1.16s-.44-.35-.74-.35-.54.12-.74.35c-.2.23-.3.58-.3,1.04Z"/>
    <path class="cls-28" d="M921.86,173.86l1.24-.19c.05.24.16.42.32.55.16.12.39.19.68.19.32,0,.56-.06.72-.18.11-.08.16-.19.16-.33,0-.09-.03-.17-.09-.23-.06-.06-.2-.11-.41-.16-1-.22-1.63-.42-1.89-.6-.37-.25-.55-.6-.55-1.05,0-.4.16-.74.48-1.02s.81-.41,1.49-.41,1.11.1,1.42.31.52.52.64.92l-1.16.22c-.05-.18-.14-.32-.28-.42-.14-.1-.34-.15-.59-.15-.33,0-.56.05-.7.14-.09.06-.14.15-.14.25,0,.09.04.16.12.22.11.08.5.2,1.15.35.66.15,1.12.33,1.38.55.26.22.39.53.39.92,0,.43-.18.8-.54,1.1s-.89.46-1.59.46c-.64,0-1.14-.13-1.51-.39-.37-.26-.61-.61-.73-1.05Z"/>
  </g>
  <g>
    <line class="cls-3" x1="905.73" y1="191.49" x2="905.73" y2="206.58"/>
    <polygon class="cls-28" points="902.34 202.59 905.73 205.99 909.12 202.59 909.12 205.47 905.73 208.86 902.34 205.47 902.34 202.59"/>
  </g>
  <rect class="cls-25" x="857.81" y="214.93" width="95.84" height="41.76" rx="5.27" ry="5.27"/>
  <g>
    <path class="cls-28" d="M889.25,224.81l1.26.4c-.19.7-.51,1.23-.96,1.57-.45.34-1.02.51-1.71.51-.86,0-1.56-.29-2.11-.88-.55-.58-.83-1.38-.83-2.4,0-1.07.28-1.91.83-2.5.55-.59,1.28-.89,2.18-.89.79,0,1.43.23,1.92.7.29.28.51.67.66,1.19l-1.29.31c-.08-.33-.23-.6-.48-.79-.24-.19-.54-.29-.88-.29-.48,0-.87.17-1.16.51-.3.34-.45.9-.45,1.67,0,.81.15,1.39.44,1.74s.67.52,1.14.52c.35,0,.64-.11.89-.33s.43-.57.54-1.04Z"/>
    <path class="cls-28" d="M892.54,223.93l-1.12-.2c.13-.45.34-.79.65-1s.76-.33,1.37-.33c.55,0,.96.07,1.23.2.27.13.46.3.57.5.11.2.16.57.16,1.1v1.44c-.01.41,0,.71.05.91.04.19.11.4.22.63h-1.22c-.03-.08-.07-.2-.12-.36-.02-.07-.04-.12-.04-.15-.21.21-.44.36-.68.46s-.5.15-.77.15c-.48,0-.86-.13-1.14-.39-.28-.26-.42-.59-.42-.99,0-.26.06-.5.19-.71.13-.21.3-.37.53-.47.23-.11.55-.21.98-.29.58-.11.98-.21,1.2-.3v-.12c0-.24-.06-.41-.18-.51-.12-.1-.34-.15-.66-.15-.22,0-.39.04-.51.13-.12.09-.22.24-.3.46ZM894.19,224.94c-.16.05-.41.12-.75.19s-.57.15-.67.22c-.16.11-.24.26-.24.44s.06.32.19.45.29.19.49.19c.22,0,.43-.07.64-.22.15-.11.25-.25.29-.41.03-.11.05-.31.05-.6v-.25Z"/>
    <path class="cls-28" d="M896.62,227.18v-6.44h1.23v6.44h-1.23Z"/>
    <path class="cls-28" d="M903.19,223.89l-1.22.22c-.04-.24-.13-.43-.28-.55-.14-.12-.33-.18-.56-.18-.31,0-.55.11-.74.32-.18.21-.27.57-.27,1.07,0,.55.09.94.28,1.17.19.23.44.34.75.34.23,0,.43-.07.58-.2.15-.13.25-.36.32-.69l1.21.21c-.13.56-.37.98-.73,1.26s-.84.43-1.44.43c-.68,0-1.23-.22-1.63-.65-.41-.43-.61-1.03-.61-1.79s.2-1.37.61-1.8c.41-.43.96-.64,1.65-.64.57,0,1.02.12,1.36.37.34.24.58.62.72,1.12Z"/>
    <path class="cls-28" d="M907.2,227.18v-.7c-.17.25-.39.45-.67.59-.28.14-.57.22-.88.22s-.59-.07-.84-.21-.43-.33-.54-.58c-.11-.25-.17-.59-.17-1.03v-2.95h1.24v2.14c0,.66.02,1.06.07,1.21.04.15.13.27.25.35.12.09.27.13.46.13.21,0,.4-.06.57-.17.17-.12.28-.26.34-.43.06-.17.09-.59.09-1.26v-1.97h1.24v4.67h-1.15Z"/>
    <path class="cls-28" d="M909.63,227.18v-6.44h1.23v6.44h-1.23Z"/>
    <path class="cls-28" d="M913.05,223.93l-1.12-.2c.13-.45.34-.79.65-1s.76-.33,1.37-.33c.55,0,.96.07,1.23.2.27.13.46.3.57.5.11.2.16.57.16,1.1v1.44c-.01.41,0,.71.05.91.04.19.11.4.22.63h-1.22c-.03-.08-.07-.2-.12-.36-.02-.07-.04-.12-.04-.15-.21.21-.44.36-.68.46s-.5.15-.77.15c-.48,0-.86-.13-1.14-.39-.28-.26-.42-.59-.42-.99,0-.26.06-.5.19-.71.13-.21.3-.37.53-.47.23-.11.55-.21.98-.29.58-.11.98-.21,1.2-.3v-.12c0-.24-.06-.41-.18-.51-.12-.1-.34-.15-.66-.15-.22,0-.39.04-.51.13-.12.09-.22.24-.3.46ZM914.7,224.94c-.16.05-.41.12-.75.19s-.57.15-.67.22c-.16.11-.24.26-.24.44s.06.32.19.45.29.19.49.19c.22,0,.43-.07.64-.22.15-.11.25-.25.29-.41.03-.11.05-.31.05-.6v-.25Z"/>
    <path class="cls-28" d="M919.27,222.51v.98h-.84v1.88c0,.38,0,.6.02.67.02.06.05.11.11.16.06.04.13.06.21.06.11,0,.28-.04.5-.12l.11.96c-.29.12-.61.18-.97.18-.22,0-.42-.04-.6-.11-.18-.07-.31-.17-.39-.29-.08-.12-.14-.28-.17-.48-.03-.14-.04-.43-.04-.87v-2.03h-.57v-.98h.57v-.93l1.24-.72v1.65h.84Z"/>
    <path class="cls-28" d="M922.83,225.69l1.23.21c-.16.45-.41.79-.75,1.03-.34.24-.77.35-1.28.35-.81,0-1.41-.27-1.8-.8-.31-.42-.46-.96-.46-1.61,0-.77.2-1.38.61-1.82s.92-.66,1.53-.66c.69,0,1.24.23,1.64.69.4.46.59,1.16.58,2.11h-3.09c0,.37.11.65.3.85.19.2.43.31.71.31.19,0,.36-.05.49-.16s.23-.28.3-.51ZM922.9,224.44c0-.36-.1-.63-.28-.82-.18-.19-.39-.28-.64-.28-.27,0-.49.1-.67.29s-.26.46-.26.8h1.85Z"/>
    <path class="cls-28" d="M865.72,235.88l1.27-.12c.08.42.23.74.46.94.23.2.55.3.94.3.42,0,.73-.09.95-.27.21-.18.32-.38.32-.62,0-.15-.04-.28-.13-.39-.09-.11-.25-.2-.47-.28-.15-.05-.5-.15-1.04-.28-.7-.17-1.19-.39-1.47-.64-.4-.35-.59-.79-.59-1.3,0-.33.09-.63.28-.92.19-.29.45-.5.8-.65.35-.15.77-.22,1.27-.22.81,0,1.42.18,1.83.53.41.35.62.83.64,1.42l-1.3.06c-.06-.33-.17-.57-.36-.71-.18-.15-.46-.22-.82-.22s-.67.08-.89.23c-.14.1-.21.23-.21.4,0,.15.06.28.19.39.16.14.56.28,1.2.43s1.1.3,1.4.46c.3.16.54.38.71.66.17.28.26.62.26,1.03,0,.37-.1.71-.31,1.04s-.5.56-.87.72c-.38.16-.84.24-1.4.24-.82,0-1.44-.19-1.88-.56s-.7-.93-.78-1.65Z"/>
    <path class="cls-28" d="M871.76,235.58c0-.41.1-.81.3-1.19.2-.38.49-.68.86-.88.37-.2.78-.3,1.24-.3.71,0,1.29.23,1.74.69.45.46.68,1.04.68,1.74s-.23,1.29-.68,1.76c-.46.46-1.03.7-1.72.7-.43,0-.84-.1-1.22-.29-.39-.19-.68-.48-.88-.85-.2-.37-.3-.83-.3-1.36ZM873.03,235.64c0,.46.11.82.33,1.06.22.25.49.37.81.37s.59-.12.81-.37c.22-.25.33-.6.33-1.07s-.11-.81-.33-1.05c-.22-.25-.49-.37-.81-.37s-.59.12-.81.37c-.22.25-.33.6-.33,1.06Z"/>
    <path class="cls-28" d="M877,233.31h.69v-.35c0-.39.04-.69.12-.88.08-.19.24-.35.46-.47.22-.12.51-.18.85-.18s.7.05,1.03.16l-.17.86c-.2-.05-.39-.07-.57-.07s-.31.04-.38.13c-.08.08-.12.24-.12.48v.33h.92v.97h-.92v3.7h-1.23v-3.7h-.69v-.97Z"/>
    <path class="cls-28" d="M882.68,233.31v.98h-.84v1.88c0,.38,0,.6.02.67.02.06.05.11.11.16.06.04.13.06.21.06.11,0,.28-.04.5-.12l.11.96c-.29.12-.61.18-.97.18-.22,0-.42-.04-.6-.11-.18-.07-.31-.17-.39-.29-.08-.12-.14-.28-.17-.48-.03-.14-.04-.43-.04-.87v-2.03h-.57v-.98h.57v-.93l1.24-.72v1.65h.84Z"/>
    <path class="cls-28" d="M891.52,237.98h-1.42l-.56-1.46h-2.57l-.53,1.46h-1.38l2.51-6.44h1.38l2.58,6.44ZM889.13,235.43l-.89-2.39-.87,2.39h1.76Z"/>
    <path class="cls-28" d="M891.77,236.65l1.24-.19c.05.24.16.42.32.55.16.12.39.19.68.19.32,0,.56-.06.72-.18.11-.08.16-.19.16-.33,0-.09-.03-.17-.09-.23-.06-.06-.2-.11-.41-.16-1-.22-1.63-.42-1.89-.6-.37-.25-.55-.6-.55-1.05,0-.4.16-.74.48-1.02s.81-.41,1.49-.41,1.11.1,1.42.31.52.52.64.92l-1.16.22c-.05-.18-.14-.32-.28-.42-.14-.1-.34-.15-.59-.15-.33,0-.56.05-.7.14-.09.06-.14.15-.14.25,0,.09.04.16.12.22.11.08.5.2,1.15.35.66.15,1.12.33,1.38.55.26.22.39.53.39.92,0,.43-.18.8-.54,1.1s-.89.46-1.59.46c-.64,0-1.14-.13-1.51-.39-.37-.26-.61-.61-.73-1.05Z"/>
    <path class="cls-28" d="M896.77,236.65l1.24-.19c.05.24.16.42.32.55.16.12.39.19.68.19.32,0,.56-.06.72-.18.11-.08.16-.19.16-.33,0-.09-.03-.17-.09-.23-.06-.06-.2-.11-.41-.16-1-.22-1.63-.42-1.89-.6-.37-.25-.55-.6-.55-1.05,0-.4.16-.74.48-1.02s.81-.41,1.49-.41,1.11.1,1.42.31.52.52.64.92l-1.16.22c-.05-.18-.14-.32-.28-.42-.14-.1-.34-.15-.59-.15-.33,0-.56.05-.7.14-.09.06-.14.15-.14.25,0,.09.04.16.12.22.11.08.5.2,1.15.35.66.15,1.12.33,1.38.55.26.22.39.53.39.92,0,.43-.18.8-.54,1.1s-.89.46-1.59.46c-.64,0-1.14-.13-1.51-.39-.37-.26-.61-.61-.73-1.05Z"/>
    <path class="cls-28" d="M902.21,232.68v-1.14h1.23v1.14h-1.23ZM902.21,237.98v-4.67h1.23v4.67h-1.23Z"/>
    <path class="cls-28" d="M904.6,238.28l1.41.17c.02.16.08.28.16.34.12.09.3.13.55.13.32,0,.56-.05.73-.15.11-.06.19-.17.25-.31.04-.1.06-.29.06-.57v-.68c-.37.5-.84.76-1.4.76-.63,0-1.12-.27-1.49-.8-.29-.42-.43-.94-.43-1.56,0-.78.19-1.38.56-1.79.38-.41.84-.62,1.4-.62s1.05.25,1.43.76v-.65h1.16v4.19c0,.55-.05.96-.14,1.23s-.22.49-.38.64-.38.28-.66.36c-.27.09-.62.13-1.04.13-.79,0-1.35-.14-1.68-.41s-.5-.61-.5-1.03c0-.04,0-.09,0-.15ZM905.7,235.55c0,.5.1.86.29,1.09.19.23.43.35.71.35.3,0,.56-.12.76-.35.21-.24.31-.58.31-1.05s-.1-.84-.3-1.08-.45-.35-.76-.35-.54.12-.73.35c-.19.23-.29.58-.29,1.05Z"/>
    <path class="cls-28" d="M914.46,237.98h-1.23v-2.38c0-.5-.03-.83-.08-.98s-.14-.26-.26-.35c-.12-.08-.26-.12-.43-.12-.21,0-.41.06-.58.18-.17.12-.29.27-.35.47-.06.19-.09.55-.09,1.07v2.11h-1.24v-4.67h1.15v.69c.41-.53.92-.79,1.54-.79.27,0,.52.05.75.15s.4.22.51.38c.12.15.2.33.24.52.04.19.07.47.07.83v2.9Z"/>
    <path class="cls-28" d="M915.62,233.31h1.14v.64c.41-.5.89-.74,1.46-.74.3,0,.56.06.78.18.22.12.4.31.54.56.21-.25.43-.44.66-.56.24-.12.49-.18.76-.18.34,0,.63.07.87.21s.41.34.53.61c.08.2.13.52.13.97v2.98h-1.23v-2.67c0-.46-.04-.76-.13-.9-.11-.18-.29-.26-.53-.26-.17,0-.34.05-.49.16-.15.11-.26.26-.33.46-.07.2-.1.53-.1.96v2.24h-1.23v-2.56c0-.45-.02-.75-.07-.88-.04-.13-.11-.23-.2-.29-.09-.06-.22-.1-.38-.1-.19,0-.36.05-.51.15s-.26.25-.33.44c-.07.19-.1.51-.1.96v2.27h-1.24v-4.67Z"/>
    <path class="cls-28" d="M926.42,236.49l1.23.21c-.16.45-.41.79-.75,1.03-.34.24-.77.35-1.28.35-.81,0-1.41-.27-1.8-.8-.31-.42-.46-.96-.46-1.61,0-.77.2-1.38.61-1.82s.92-.66,1.53-.66c.69,0,1.24.23,1.64.69.4.46.59,1.16.58,2.11h-3.09c0,.37.11.65.3.85.19.2.43.31.71.31.19,0,.36-.05.49-.16s.23-.28.3-.51ZM926.49,235.24c0-.36-.1-.63-.28-.82-.18-.19-.39-.28-.64-.28-.27,0-.49.1-.67.29s-.26.46-.26.8h1.85Z"/>
    <path class="cls-28" d="M932.96,237.98h-1.23v-2.38c0-.5-.03-.83-.08-.98s-.14-.26-.26-.35c-.12-.08-.26-.12-.43-.12-.21,0-.41.06-.58.18-.17.12-.29.27-.35.47-.06.19-.09.55-.09,1.07v2.11h-1.24v-4.67h1.15v.69c.41-.53.92-.79,1.54-.79.27,0,.52.05.75.15s.4.22.51.38c.12.15.2.33.24.52.04.19.07.47.07.83v2.9Z"/>
    <path class="cls-28" d="M936.36,233.31v.98h-.84v1.88c0,.38,0,.6.02.67.02.06.05.11.11.16.06.04.13.06.21.06.11,0,.28-.04.5-.12l.11.96c-.29.12-.61.18-.97.18-.22,0-.42-.04-.6-.11-.18-.07-.31-.17-.39-.29-.08-.12-.14-.28-.17-.48-.03-.14-.04-.43-.04-.87v-2.03h-.57v-.98h.57v-.93l1.24-.72v1.65h.84Z"/>
    <path class="cls-28" d="M944.91,237.16c.32.23.67.41,1.04.54l-.48.92c-.2-.06-.39-.14-.58-.24-.04-.02-.33-.21-.87-.57-.42.18-.89.28-1.4.28-.99,0-1.77-.29-2.33-.87-.56-.58-.84-1.4-.84-2.46s.28-1.87.84-2.45c.56-.58,1.33-.88,2.29-.88s1.71.29,2.27.88c.56.58.84,1.4.84,2.45,0,.56-.08,1.05-.23,1.47-.12.32-.3.63-.56.94ZM943.86,236.43c.17-.2.29-.43.38-.71.08-.28.12-.6.12-.96,0-.74-.16-1.3-.49-1.67s-.76-.55-1.29-.55-.96.18-1.29.55c-.33.37-.49.92-.49,1.67s.17,1.32.49,1.69c.33.37.75.56,1.25.56.19,0,.36-.03.53-.09-.26-.17-.53-.31-.8-.4l.37-.74c.43.15.84.37,1.23.66Z"/>
    <path class="cls-28" d="M863.75,248.78v-5.35h-1.91v-1.09h5.12v1.09h-1.91v5.35h-1.3Z"/>
    <path class="cls-28" d="M868.04,245.53l-1.12-.2c.13-.45.34-.79.65-1s.76-.33,1.37-.33c.55,0,.96.07,1.23.2.27.13.46.3.57.5.11.2.16.57.16,1.1v1.44c-.01.41,0,.71.05.91.04.19.11.4.22.63h-1.22c-.03-.08-.07-.2-.12-.36-.02-.07-.04-.12-.04-.15-.21.21-.44.36-.68.46s-.5.15-.77.15c-.48,0-.86-.13-1.14-.39-.28-.26-.42-.59-.42-.99,0-.26.06-.5.19-.71.13-.21.3-.37.53-.47.23-.11.55-.21.98-.29.58-.11.98-.21,1.2-.3v-.12c0-.24-.06-.41-.18-.51-.12-.1-.34-.15-.66-.15-.22,0-.39.04-.51.13-.12.09-.22.24-.3.46ZM869.7,246.54c-.16.05-.41.12-.75.19s-.57.15-.67.22c-.16.11-.24.26-.24.44s.06.32.19.45.29.19.49.19c.22,0,.43-.07.64-.22.15-.11.25-.25.29-.41.03-.11.05-.31.05-.6v-.25Z"/>
    <path class="cls-28" d="M873.31,248.78h-1.23v-4.67h1.15v.66c.2-.31.37-.52.53-.62.16-.1.33-.15.53-.15.28,0,.55.08.81.23l-.38,1.08c-.21-.13-.4-.2-.58-.2s-.32.05-.44.14c-.12.1-.21.27-.28.52-.07.25-.1.77-.1,1.56v1.44Z"/>
    <path class="cls-28" d="M875.52,249.08l1.41.17c.02.16.08.28.16.34.12.09.3.13.55.13.32,0,.56-.05.73-.15.11-.06.19-.17.25-.31.04-.1.06-.29.06-.57v-.68c-.37.5-.84.76-1.4.76-.63,0-1.12-.27-1.49-.8-.29-.42-.43-.94-.43-1.56,0-.78.19-1.38.56-1.79.38-.41.84-.62,1.4-.62s1.05.25,1.43.76v-.65h1.16v4.19c0,.55-.05.96-.14,1.23s-.22.49-.38.64-.38.28-.66.36c-.27.09-.62.13-1.04.13-.79,0-1.35-.14-1.68-.41s-.5-.61-.5-1.03c0-.04,0-.09,0-.15ZM876.62,246.35c0,.5.1.86.29,1.09.19.23.43.35.71.35.3,0,.56-.12.76-.35.21-.24.31-.58.31-1.05s-.1-.84-.3-1.08-.45-.35-.76-.35-.54.12-.73.35c-.19.23-.29.58-.29,1.05Z"/>
    <path class="cls-28" d="M883.83,247.29l1.23.21c-.16.45-.41.79-.75,1.03-.34.24-.77.35-1.28.35-.81,0-1.41-.27-1.8-.8-.31-.42-.46-.96-.46-1.61,0-.77.2-1.38.61-1.82s.92-.66,1.53-.66c.69,0,1.24.23,1.64.69.4.46.59,1.16.58,2.11h-3.09c0,.37.11.65.3.85.19.2.43.31.71.31.19,0,.36-.05.49-.16s.23-.28.3-.51ZM883.9,246.04c0-.36-.1-.63-.28-.82-.18-.19-.39-.28-.64-.28-.27,0-.49.1-.67.29s-.26.46-.26.8h1.85Z"/>
    <path class="cls-28" d="M888.27,244.11v.98h-.84v1.88c0,.38,0,.6.02.67.02.06.05.11.11.16.06.04.13.06.21.06.11,0,.28-.04.5-.12l.11.96c-.29.12-.61.18-.97.18-.22,0-.42-.04-.6-.11-.18-.07-.31-.17-.39-.29-.08-.12-.14-.28-.17-.48-.03-.14-.04-.43-.04-.87v-2.03h-.57v-.98h.57v-.93l1.24-.72v1.65h.84Z"/>
    <path class="cls-28" d="M891.63,242.33h2.38c.54,0,.95.04,1.23.12.38.11.7.31.97.59s.47.63.62,1.04c.14.41.21.92.21,1.52,0,.53-.07.99-.2,1.37-.16.47-.39.85-.69,1.14-.23.22-.53.39-.91.51-.29.09-.67.14-1.15.14h-2.45v-6.44ZM892.94,243.42v4.27h.97c.36,0,.63-.02.79-.06.21-.05.39-.14.53-.27.14-.13.25-.33.34-.62.09-.29.13-.68.13-1.18s-.04-.88-.13-1.15-.21-.47-.37-.62-.36-.25-.6-.3c-.18-.04-.54-.06-1.07-.06h-.58Z"/>
    <path class="cls-28" d="M898.13,243.48v-1.14h1.23v1.14h-1.23ZM898.13,248.78v-4.67h1.23v4.67h-1.23Z"/>
    <path class="cls-28" d="M900.2,247.45l1.24-.19c.05.24.16.42.32.55.16.12.39.19.68.19.32,0,.56-.06.72-.18.11-.08.16-.19.16-.33,0-.09-.03-.17-.09-.23-.06-.06-.2-.11-.41-.16-1-.22-1.63-.42-1.89-.6-.37-.25-.55-.6-.55-1.05,0-.4.16-.74.48-1.02s.81-.41,1.49-.41,1.11.1,1.42.31.52.52.64.92l-1.16.22c-.05-.18-.14-.32-.28-.42-.14-.1-.34-.15-.59-.15-.33,0-.56.05-.7.14-.09.06-.14.15-.14.25,0,.09.04.16.12.22.11.08.5.2,1.15.35.66.15,1.12.33,1.38.55.26.22.39.53.39.92,0,.43-.18.8-.54,1.1s-.89.46-1.59.46c-.64,0-1.14-.13-1.51-.39-.37-.26-.61-.61-.73-1.05Z"/>
    <path class="cls-28" d="M907.78,244.11v.98h-.84v1.88c0,.38,0,.6.02.67.02.06.05.11.11.16.06.04.13.06.21.06.11,0,.28-.04.5-.12l.11.96c-.29.12-.61.18-.97.18-.22,0-.42-.04-.6-.11-.18-.07-.31-.17-.39-.29-.08-.12-.14-.28-.17-.48-.03-.14-.04-.43-.04-.87v-2.03h-.57v-.98h.57v-.93l1.24-.72v1.65h.84Z"/>
    <path class="cls-28" d="M909.81,248.78h-1.23v-4.67h1.15v.66c.2-.31.37-.52.53-.62.16-.1.33-.15.53-.15.28,0,.55.08.81.23l-.38,1.08c-.21-.13-.4-.2-.58-.2s-.32.05-.44.14c-.12.1-.21.27-.28.52-.07.25-.1.77-.1,1.56v1.44Z"/>
    <path class="cls-28" d="M912.14,243.48v-1.14h1.23v1.14h-1.23ZM912.14,248.78v-4.67h1.23v4.67h-1.23Z"/>
    <path class="cls-28" d="M914.58,248.78v-6.44h1.23v2.32c.38-.43.83-.65,1.35-.65.57,0,1.04.21,1.41.62.37.41.56,1,.56,1.77s-.19,1.41-.57,1.84c-.38.43-.84.65-1.38.65-.27,0-.53-.07-.79-.2-.26-.13-.48-.33-.67-.59v.69h-1.15ZM915.81,246.34c0,.48.08.84.23,1.07.21.33.5.49.85.49.27,0,.5-.12.7-.35.19-.23.29-.6.29-1.1,0-.53-.1-.92-.29-1.15s-.44-.35-.74-.35-.54.12-.74.35-.29.58-.29,1.05Z"/>
    <path class="cls-28" d="M923.21,248.78v-.7c-.17.25-.39.45-.67.59-.28.14-.57.22-.88.22s-.59-.07-.84-.21-.43-.33-.54-.58c-.11-.25-.17-.59-.17-1.03v-2.95h1.24v2.14c0,.66.02,1.06.07,1.21.04.15.13.27.25.35.12.09.27.13.46.13.21,0,.4-.06.57-.17.17-.12.28-.26.34-.43.06-.17.09-.59.09-1.26v-1.97h1.24v4.67h-1.15Z"/>
    <path class="cls-28" d="M927.77,244.11v.98h-.84v1.88c0,.38,0,.6.02.67.02.06.05.11.11.16.06.04.13.06.21.06.11,0,.28-.04.5-.12l.11.96c-.29.12-.61.18-.97.18-.22,0-.42-.04-.6-.11-.18-.07-.31-.17-.39-.29-.08-.12-.14-.28-.17-.48-.03-.14-.04-.43-.04-.87v-2.03h-.57v-.98h.57v-.93l1.24-.72v1.65h.84Z"/>
    <path class="cls-28" d="M928.63,243.48v-1.14h1.23v1.14h-1.23ZM928.63,248.78v-4.67h1.23v4.67h-1.23Z"/>
    <path class="cls-28" d="M930.84,246.38c0-.41.1-.81.3-1.19.2-.38.49-.68.86-.88.37-.2.78-.3,1.24-.3.71,0,1.29.23,1.74.69.45.46.68,1.04.68,1.74s-.23,1.29-.68,1.76c-.46.46-1.03.7-1.72.7-.43,0-.84-.1-1.22-.29-.39-.19-.68-.48-.88-.85-.2-.37-.3-.83-.3-1.36ZM932.11,246.44c0,.46.11.82.33,1.06.22.25.49.37.81.37s.59-.12.81-.37c.22-.25.33-.6.33-1.07s-.11-.81-.33-1.05c-.22-.25-.49-.37-.81-.37s-.59.12-.81.37c-.22.25-.33.6-.33,1.06Z"/>
    <path class="cls-28" d="M940.87,248.78h-1.23v-2.38c0-.5-.03-.83-.08-.98s-.14-.26-.26-.35c-.12-.08-.26-.12-.43-.12-.21,0-.41.06-.58.18-.17.12-.29.27-.35.47-.06.19-.09.55-.09,1.07v2.11h-1.24v-4.67h1.15v.69c.41-.53.92-.79,1.54-.79.27,0,.52.05.75.15s.4.22.51.38c.12.15.2.33.24.52.04.19.07.47.07.83v2.9Z"/>
    <path class="cls-28" d="M944.63,248.78v-6.44h2.09c.79,0,1.31.03,1.55.1.37.1.68.31.93.63.25.32.37.74.37,1.25,0,.4-.07.73-.21,1-.14.27-.33.48-.55.63-.22.15-.45.26-.67.31-.31.06-.76.09-1.35.09h-.85v2.43h-1.3ZM945.93,243.42v1.83h.71c.51,0,.85-.03,1.03-.1s.31-.17.41-.32c.1-.14.15-.31.15-.5,0-.23-.07-.43-.21-.58s-.31-.25-.52-.29c-.16-.03-.47-.04-.94-.04h-.63Z"/>
  </g>
  <g>
    <line class="cls-3" x1="905.65" y1="265.56" x2="905.65" y2="280.65"/>
    <polygon class="cls-28" points="902.26 276.67 905.65 280.06 909.04 276.67 909.04 279.55 905.65 282.94 902.26 279.55 902.26 276.67"/>
  </g>
  <rect class="cls-25" x="872.07" y="291.81" width="67.31" height="23.52" rx="5.26" ry="5.26"/>
  <text class="cls-34" transform="translate(885.72 305.68)"><tspan x="0" y="0">L_cluster</tspan></text>
  <path class="cls-3" d="M872.07,302.92h-61.07"/>
  <g>
    <line class="cls-3" x1="701.59" y1="84.75" x2="545.79" y2="84.75"/>
    <polygon class="cls-28" points="549.77 81.35 546.38 84.75 549.77 88.14 546.89 88.14 543.5 84.75 546.89 81.35 549.77 81.35"/>
  </g>
  <rect class="cls-26" x="705.75" y="75.04" width="213.15" height="19.41" rx="6.76" ry="6.76"/>
  <text class="cls-34" transform="translate(718.41 86.91)"><tspan x="0" y="0">L_total = L_recon + α * L_cluster + β * L_reg</tspan></text>
  <g>
    <path class="cls-28" d="M504.48,80.79h-1.89l-.75-1.95h-3.43l-.71,1.95h-1.84l3.35-8.59h1.83l3.44,8.59ZM501.29,77.4l-1.18-3.19-1.16,3.19h2.34Z"/>
    <path class="cls-28" d="M511.1,80.79h-1.53v-.91c-.25.36-.55.62-.9.79s-.69.26-1.05.26c-.71,0-1.33-.29-1.84-.86s-.76-1.38-.76-2.41.25-1.86.74-2.41,1.12-.82,1.88-.82c.7,0,1.3.29,1.8.87v-3.09h1.65v8.59ZM506.7,77.55c0,.66.09,1.14.28,1.44.27.43.64.64,1.11.64.38,0,.7-.16.97-.48s.4-.8.4-1.44c0-.71-.13-1.23-.39-1.54s-.59-.47-.99-.47-.72.16-.98.47-.4.77-.4,1.39Z"/>
    <path class="cls-28" d="M513.95,76.47l-1.49-.27c.17-.6.46-1.05.87-1.34s1.02-.43,1.83-.43c.73,0,1.28.09,1.64.26s.61.39.76.66.22.76.22,1.47l-.02,1.92c0,.55.03.95.08,1.21s.15.54.3.83h-1.63c-.04-.11-.1-.27-.16-.49-.03-.1-.05-.16-.06-.19-.28.27-.58.48-.9.62s-.66.21-1.03.21c-.64,0-1.15-.17-1.51-.52s-.55-.79-.55-1.32c0-.35.08-.67.25-.94s.4-.49.71-.63.74-.27,1.31-.38c.77-.14,1.3-.28,1.6-.4v-.16c0-.32-.08-.54-.23-.68s-.45-.2-.88-.2c-.29,0-.52.06-.69.17s-.3.32-.4.61ZM516.15,77.81c-.21.07-.54.15-1,.25s-.76.19-.9.29c-.21.15-.32.35-.32.58s.09.43.26.6.39.25.66.25c.3,0,.58-.1.85-.29.2-.15.33-.33.39-.54.04-.14.06-.41.06-.8v-.33Z"/>
    <path class="cls-28" d="M519.27,74.57h1.52v.85c.54-.66,1.19-.99,1.94-.99.4,0,.74.08,1.04.25s.53.41.72.74c.27-.33.57-.58.88-.74s.65-.25,1.01-.25c.46,0,.84.09,1.16.28s.55.46.71.82c.11.27.17.7.17,1.29v3.98h-1.65v-3.56c0-.62-.06-1.02-.17-1.2-.15-.23-.39-.35-.7-.35-.23,0-.45.07-.65.21s-.35.35-.44.62-.13.7-.13,1.29v2.99h-1.65v-3.41c0-.61-.03-1-.09-1.17s-.15-.31-.27-.39-.29-.13-.5-.13c-.25,0-.48.07-.69.21s-.35.33-.44.59-.13.69-.13,1.28v3.02h-1.65v-6.22Z"/>
    <path class="cls-28" d="M487.05,90.95c0-.88.13-1.61.39-2.2.2-.44.46-.83.8-1.18s.71-.61,1.11-.77c.54-.23,1.15-.34,1.85-.34,1.27,0,2.28.39,3.04,1.18s1.14,1.88,1.14,3.28-.38,2.47-1.13,3.25-1.76,1.17-3.02,1.17-2.29-.39-3.05-1.17-1.13-1.85-1.13-3.22ZM488.84,90.89c0,.97.22,1.71.67,2.21s1.02.75,1.71.75,1.26-.25,1.7-.75.67-1.25.67-2.24-.22-1.72-.65-2.2-1-.73-1.72-.73-1.29.25-1.73.74-.66,1.23-.66,2.22Z"/>
    <path class="cls-28" d="M496.68,88.97h1.54v.91c.2-.31.47-.57.81-.76s.72-.29,1.13-.29c.72,0,1.34.28,1.84.85s.76,1.36.76,2.37-.25,1.85-.76,2.42-1.12.86-1.85.86c-.34,0-.66-.07-.93-.21s-.57-.37-.88-.7v3.13h-1.65v-8.59ZM498.3,91.98c0,.7.14,1.22.42,1.55s.62.5,1.01.5.7-.15.96-.46.38-.81.38-1.51c0-.65-.13-1.14-.39-1.45s-.59-.47-.97-.47-.74.16-1,.47-.4.77-.4,1.38Z"/>
    <path class="cls-28" d="M506.91,88.97v1.31h-1.12v2.51c0,.51.01.8.03.89s.07.15.15.21.17.08.28.08c.15,0,.37-.05.66-.16l.14,1.28c-.38.16-.82.25-1.3.25-.3,0-.56-.05-.8-.15s-.41-.23-.52-.39-.19-.37-.23-.64c-.04-.19-.05-.58-.05-1.16v-2.71h-.76v-1.31h.76v-1.24l1.65-.96v2.2h1.12Z"/>
    <path class="cls-28" d="M508.05,88.13v-1.52h1.65v1.52h-1.65ZM508.05,95.19v-6.22h1.65v6.22h-1.65Z"/>
    <path class="cls-28" d="M511.26,88.97h1.52v.85c.54-.66,1.19-.99,1.94-.99.4,0,.74.08,1.04.25s.53.41.72.74c.27-.33.57-.58.88-.74s.65-.25,1.01-.25c.46,0,.84.09,1.16.28s.55.46.71.82c.11.27.17.7.17,1.29v3.98h-1.65v-3.56c0-.62-.06-1.02-.17-1.2-.15-.23-.39-.35-.7-.35-.23,0-.45.07-.65.21s-.35.35-.44.62-.13.7-.13,1.29v2.99h-1.65v-3.41c0-.61-.03-1-.09-1.17s-.15-.31-.27-.39-.29-.13-.5-.13c-.25,0-.48.07-.69.21s-.35.33-.44.59-.13.69-.13,1.28v3.02h-1.65v-6.22Z"/>
    <path class="cls-28" d="M522.05,88.13v-1.52h1.65v1.52h-1.65ZM522.05,95.19v-6.22h1.65v6.22h-1.65Z"/>
    <path class="cls-28" d="M524.72,95.19v-1.28l2.33-2.68c.38-.44.67-.75.85-.93-.19.01-.44.02-.76.02h-2.2s0-1.35,0-1.35h5.14v1.17l-2.38,2.74-.84.91c.46-.03.74-.04.85-.04h2.55v1.45h-5.55Z"/>
    <path class="cls-28" d="M534.99,93.21l1.64.28c-.21.6-.54,1.06-1,1.37s-1.02.47-1.71.47c-1.08,0-1.88-.35-2.4-1.06-.41-.57-.62-1.28-.62-2.14,0-1.03.27-1.84.81-2.42s1.22-.88,2.04-.88c.93,0,1.66.31,2.19.92s.79,1.55.77,2.81h-4.12c.01.49.14.87.4,1.14s.57.41.95.41c.26,0,.47-.07.65-.21s.31-.37.4-.68ZM535.08,91.55c-.01-.48-.13-.84-.37-1.09s-.52-.37-.86-.37c-.36,0-.66.13-.89.39s-.35.62-.35,1.07h2.46Z"/>
    <path class="cls-28" d="M539.64,95.19h-1.65v-6.22h1.53v.88c.26-.42.5-.69.71-.83s.45-.2.71-.2c.38,0,.74.1,1.08.31l-.51,1.44c-.28-.18-.54-.27-.77-.27s-.43.06-.59.19-.29.36-.38.69-.14,1.03-.14,2.09v1.92Z"/>
  </g>
  <g>
    <line class="cls-3" x1="390.03" y1="167.4" x2="518.36" y2="167.4"/>
    <polygon class="cls-28" points="514.37 170.79 517.77 167.4 514.37 164 517.25 164 520.64 167.4 517.25 170.79 514.37 170.79"/>
  </g>
  <g>
    <line class="cls-3" x1="586.17" y1="167.4" x2="670.44" y2="167.4"/>
    <polygon class="cls-28" points="666.46 170.79 669.85 167.4 666.46 164 669.33 164 672.73 167.4 669.33 170.79 666.46 170.79"/>
  </g>
  <g>
    <path class="cls-28" d="M516.36,152.7v-8.59h2.78c1.05,0,1.74.04,2.06.13.49.13.9.41,1.24.84s.5.99.5,1.67c0,.53-.1.97-.29,1.33s-.43.64-.73.85-.59.34-.9.41c-.41.08-1.01.12-1.8.12h-1.13v3.24h-1.73ZM518.1,145.56v2.44h.95c.68,0,1.14-.04,1.37-.13s.41-.23.54-.42.2-.41.2-.67c0-.31-.09-.57-.28-.77s-.42-.33-.7-.38c-.21-.04-.62-.06-1.25-.06h-.84Z"/>
    <path class="cls-28" d="M525.59,148.38l-1.49-.27c.17-.6.46-1.05.87-1.34s1.02-.43,1.83-.43c.73,0,1.28.09,1.64.26s.61.39.76.66.22.76.22,1.47l-.02,1.92c0,.55.03.95.08,1.21s.15.54.3.83h-1.63c-.04-.11-.1-.27-.16-.49-.03-.1-.05-.16-.06-.19-.28.27-.58.48-.9.62s-.66.21-1.03.21c-.64,0-1.15-.17-1.51-.52s-.55-.79-.55-1.32c0-.35.08-.67.25-.94s.4-.49.71-.63.74-.27,1.31-.38c.77-.14,1.3-.28,1.6-.4v-.16c0-.32-.08-.54-.23-.68s-.45-.2-.88-.2c-.29,0-.52.06-.69.17s-.3.32-.4.61ZM527.79,149.71c-.21.07-.54.15-1,.25s-.76.19-.9.29c-.21.15-.32.35-.32.58s.09.43.26.6.39.25.66.25c.3,0,.58-.1.85-.29.2-.15.33-.33.39-.54.04-.14.06-.41.06-.8v-.33Z"/>
    <path class="cls-28" d="M531.03,145.64v-1.52h1.65v1.52h-1.65ZM531.03,152.7v-6.22h1.65v6.22h-1.65Z"/>
    <path class="cls-28" d="M535.94,152.7h-1.65v-6.22h1.53v.88c.26-.42.5-.69.71-.83s.45-.2.71-.2c.38,0,.74.1,1.08.31l-.51,1.44c-.28-.18-.54-.27-.77-.27s-.43.06-.59.19-.29.36-.38.69-.14,1.03-.14,2.09v1.92Z"/>
    <path class="cls-28" d="M542.64,150.72l1.64.28c-.21.6-.54,1.06-1,1.37s-1.02.47-1.71.47c-1.08,0-1.88-.35-2.4-1.06-.41-.57-.62-1.28-.62-2.14,0-1.03.27-1.84.81-2.42s1.22-.88,2.04-.88c.93,0,1.66.31,2.19.92s.79,1.55.77,2.81h-4.12c.01.49.14.87.4,1.14s.57.41.95.41c.26,0,.47-.07.65-.21s.31-.37.4-.68ZM542.73,149.06c-.01-.48-.13-.84-.37-1.09s-.52-.37-.86-.37c-.36,0-.66.13-.89.39s-.35.62-.35,1.07h2.46Z"/>
    <path class="cls-28" d="M551.42,152.7h-1.53v-.91c-.25.36-.55.62-.9.79s-.69.26-1.05.26c-.71,0-1.33-.29-1.84-.86s-.76-1.38-.76-2.41.25-1.86.74-2.41,1.12-.82,1.88-.82c.7,0,1.3.29,1.8.87v-3.09h1.65v8.59ZM547.02,149.46c0,.66.09,1.14.28,1.44.27.43.64.64,1.11.64.38,0,.7-.16.97-.48s.4-.8.4-1.44c0-.71-.13-1.23-.39-1.54s-.59-.47-.99-.47-.72.16-.98.47-.4.77-.4,1.39Z"/>
    <path class="cls-28" d="M562.03,152.7h-1.65v-3.18c0-.67-.04-1.11-.11-1.3s-.18-.35-.34-.46-.35-.16-.57-.16c-.29,0-.54.08-.77.23s-.38.36-.47.62-.13.73-.13,1.43v2.82h-1.65v-6.22h1.53v.91c.54-.7,1.23-1.05,2.05-1.05.36,0,.7.07,1,.2s.53.3.68.5.26.43.32.69.09.63.09,1.11v3.87Z"/>
    <path class="cls-28" d="M563.32,149.5c0-.55.13-1.08.4-1.59s.65-.9,1.15-1.17,1.05-.4,1.66-.4c.94,0,1.71.31,2.31.92s.9,1.38.9,2.32-.3,1.72-.91,2.34-1.37.93-2.29.93c-.57,0-1.11-.13-1.63-.39s-.91-.64-1.18-1.13-.4-1.1-.4-1.82ZM565.01,149.59c0,.62.15,1.09.44,1.42s.65.49,1.08.49.79-.16,1.08-.49.44-.8.44-1.43-.15-1.08-.44-1.41-.65-.49-1.08-.49-.79.16-1.08.49-.44.8-.44,1.42Z"/>
    <path class="cls-28" d="M576.74,152.7h-1.53v-.91c-.25.36-.55.62-.9.79s-.69.26-1.05.26c-.71,0-1.33-.29-1.84-.86s-.76-1.38-.76-2.41.25-1.86.74-2.41,1.12-.82,1.88-.82c.7,0,1.3.29,1.8.87v-3.09h1.65v8.59ZM572.34,149.46c0,.66.09,1.14.28,1.44.27.43.64.64,1.11.64.38,0,.7-.16.97-.48s.4-.8.4-1.44c0-.71-.13-1.23-.39-1.54s-.59-.47-.99-.47-.72.16-.98.47-.4.77-.4,1.39Z"/>
    <path class="cls-28" d="M581.97,150.72l1.64.28c-.21.6-.54,1.06-1,1.37s-1.02.47-1.71.47c-1.08,0-1.88-.35-2.4-1.06-.41-.57-.62-1.28-.62-2.14,0-1.03.27-1.84.81-2.42s1.22-.88,2.04-.88c.93,0,1.66.31,2.19.92s.79,1.55.77,2.81h-4.12c.01.49.14.87.4,1.14s.57.41.95.41c.26,0,.47-.07.65-.21s.31-.37.4-.68ZM582.06,149.06c-.01-.48-.13-.84-.37-1.09s-.52-.37-.86-.37c-.36,0-.66.13-.89.39s-.35.62-.35,1.07h2.46Z"/>
    <path class="cls-28" d="M584.46,150.93l1.65-.25c.07.32.21.56.43.73s.52.25.9.25c.43,0,.75-.08.96-.23.14-.11.22-.26.22-.44,0-.12-.04-.23-.12-.31-.08-.08-.27-.15-.55-.22-1.33-.29-2.17-.56-2.53-.8-.49-.34-.74-.8-.74-1.4,0-.54.21-.99.64-1.36s1.09-.55,1.98-.55,1.48.14,1.9.42.7.69.86,1.23l-1.55.29c-.07-.24-.19-.43-.38-.56s-.45-.19-.79-.19c-.43,0-.74.06-.93.18-.12.09-.19.2-.19.33,0,.12.05.22.16.3.15.11.66.26,1.54.46s1.49.44,1.84.73c.34.29.52.7.52,1.22,0,.57-.24,1.06-.71,1.47s-1.18.62-2.12.62c-.85,0-1.52-.17-2.01-.52s-.82-.81-.97-1.4Z"/>
  </g>
  <text class="cls-35" transform="translate(531.86 185.25)"><tspan class="cls-37" x="0" y="0">(Z</tspan><tspan class="cls-38" x="13.21" y="0">i</tspan><tspan class="cls-36" x="15.71" y="0" xml:space="preserve"> , Z</tspan><tspan class="cls-39" x="35.93" y="0">j</tspan><tspan class="cls-37" x="38.44" y="0">)</tspan></text>
  <g>
    <line class="cls-3" x1="622.55" y1="85.27" x2="622.55" y2="91.27"/>
    <line class="cls-15" x1="622.55" y1="93.36" x2="622.55" y2="209.5"/>
    <line class="cls-3" x1="622.55" y1="210.54" x2="622.55" y2="216.54"/>
  </g>
  <line class="cls-7" x1="623.55" y1="216.19" x2="553.07" y2="216.54"/>
  <g>
    <line class="cls-21" x1="553.98" y1="215.2" x2="553.98" y2="238.72"/>
    <polygon class="cls-28" points="550.59 234.73 553.98 238.13 557.37 234.73 557.37 237.61 553.98 241 550.59 237.61 550.59 234.73"/>
  </g>
  <g>
    <path class="cls-28" d="M524.2,262.03v-8.59h5.89v1.45h-4.15v2.03h3.59v1.45h-3.59v3.65h-1.73Z"/>
    <path class="cls-28" d="M531.5,254.96v-1.52h1.65v1.52h-1.65ZM531.5,262.03v-6.22h1.65v6.22h-1.65Z"/>
    <path class="cls-28" d="M540.5,262.03h-1.65v-3.18c0-.67-.04-1.11-.11-1.3s-.18-.35-.34-.46-.35-.16-.57-.16c-.29,0-.54.08-.77.23s-.38.36-.47.62-.13.73-.13,1.43v2.82h-1.65v-6.22h1.53v.91c.54-.7,1.23-1.05,2.05-1.05.36,0,.7.07,1,.2s.53.3.68.5.26.43.32.69.09.63.09,1.11v3.87Z"/>
    <path class="cls-28" d="M543.4,257.7l-1.49-.27c.17-.6.46-1.05.87-1.34s1.02-.43,1.83-.43c.73,0,1.28.09,1.64.26s.61.39.76.66.22.76.22,1.47l-.02,1.92c0,.55.03.95.08,1.21s.15.54.3.83h-1.63c-.04-.11-.1-.27-.16-.49-.03-.1-.05-.16-.06-.19-.28.27-.58.48-.9.62s-.66.21-1.03.21c-.64,0-1.15-.17-1.51-.52s-.55-.79-.55-1.32c0-.35.08-.67.25-.94s.4-.49.71-.63.74-.27,1.31-.38c.77-.14,1.3-.28,1.6-.4v-.16c0-.32-.08-.54-.23-.68s-.45-.2-.88-.2c-.29,0-.52.06-.69.17s-.3.32-.4.61ZM545.6,259.04c-.21.07-.54.15-1,.25s-.76.19-.9.29c-.21.15-.32.35-.32.58s.09.43.26.6.39.25.66.25c.3,0,.58-.1.85-.29.2-.15.33-.33.39-.54.04-.14.06-.41.06-.8v-.33Z"/>
    <path class="cls-28" d="M548.84,262.03v-8.59h1.65v8.59h-1.65Z"/>
    <path class="cls-28" d="M555.54,262.03v-8.59h1.69l3.52,5.74v-5.74h1.61v8.59h-1.74l-3.46-5.6v5.6h-1.61Z"/>
    <path class="cls-28" d="M563.79,258.83c0-.55.13-1.08.4-1.59s.65-.9,1.15-1.17,1.05-.4,1.66-.4c.94,0,1.71.31,2.31.92s.9,1.38.9,2.32-.3,1.72-.91,2.34-1.37.93-2.29.93c-.57,0-1.11-.13-1.63-.39s-.91-.64-1.18-1.13-.4-1.1-.4-1.82ZM565.48,258.92c0,.62.15,1.09.44,1.42s.65.49,1.08.49.79-.16,1.08-.49.44-.8.44-1.43-.15-1.08-.44-1.41-.65-.49-1.08-.49-.79.16-1.08.49-.44.8-.44,1.42Z"/>
    <path class="cls-28" d="M577.21,262.03h-1.53v-.91c-.25.36-.55.62-.9.79s-.69.26-1.05.26c-.71,0-1.33-.29-1.84-.86s-.76-1.38-.76-2.41.25-1.86.74-2.41,1.12-.82,1.88-.82c.7,0,1.3.29,1.8.87v-3.09h1.65v8.59ZM572.82,258.78c0,.66.09,1.14.28,1.44.27.43.64.64,1.11.64.38,0,.7-.16.97-.48s.4-.8.4-1.44c0-.71-.13-1.23-.39-1.54s-.59-.47-.99-.47-.72.16-.98.47-.4.77-.4,1.39Z"/>
    <path class="cls-28" d="M582.44,260.05l1.64.28c-.21.6-.54,1.06-1,1.37s-1.02.47-1.71.47c-1.08,0-1.88-.35-2.4-1.06-.41-.57-.62-1.28-.62-2.14,0-1.03.27-1.84.81-2.42s1.22-.88,2.04-.88c.93,0,1.66.31,2.19.92s.79,1.55.77,2.81h-4.12c.01.49.14.87.4,1.14s.57.41.95.41c.26,0,.47-.07.65-.21s.31-.37.4-.68ZM582.53,258.38c-.01-.48-.13-.84-.37-1.09s-.52-.37-.86-.37c-.36,0-.66.13-.89.39s-.35.62-.35,1.07h2.46Z"/>
    <path class="cls-28" d="M518.85,276.43v-8.59h6.37v1.45h-4.63v1.9h4.31v1.45h-4.31v2.34h4.8v1.45h-6.53Z"/>
    <path class="cls-28" d="M526.72,270.2h1.52v.85c.54-.66,1.19-.99,1.94-.99.4,0,.74.08,1.04.25s.53.41.72.74c.27-.33.57-.58.88-.74s.65-.25,1.01-.25c.46,0,.84.09,1.16.28s.55.46.71.82c.11.27.17.7.17,1.29v3.98h-1.65v-3.56c0-.62-.06-1.02-.17-1.2-.15-.23-.39-.35-.7-.35-.23,0-.45.07-.65.21s-.35.35-.44.62-.13.7-.13,1.29v2.99h-1.65v-3.41c0-.61-.03-1-.09-1.17s-.15-.31-.27-.39-.29-.13-.5-.13c-.25,0-.48.07-.69.21s-.35.33-.44.59-.13.69-.13,1.28v3.02h-1.65v-6.22Z"/>
    <path class="cls-28" d="M537.44,276.43v-8.59h1.65v3.09c.51-.58,1.11-.87,1.8-.87.76,0,1.38.27,1.88.82s.74,1.34.74,2.36-.25,1.88-.76,2.46-1.12.86-1.84.86c-.36,0-.71-.09-1.05-.27s-.64-.44-.89-.79v.91h-1.53ZM539.08,273.18c0,.64.1,1.12.3,1.43.29.44.66.66,1.14.66.36,0,.67-.16.93-.47s.38-.8.38-1.47c0-.71-.13-1.22-.39-1.54s-.59-.47-.99-.47-.72.15-.98.46-.39.77-.39,1.4Z"/>
    <path class="cls-28" d="M548.45,274.45l1.64.28c-.21.6-.54,1.06-1,1.37s-1.02.47-1.71.47c-1.08,0-1.88-.35-2.4-1.06-.41-.57-.62-1.28-.62-2.14,0-1.03.27-1.84.81-2.42s1.22-.88,2.04-.88c.93,0,1.66.31,2.19.92s.79,1.55.77,2.81h-4.12c.01.49.14.87.4,1.14s.57.41.95.41c.26,0,.47-.07.65-.21s.31-.37.4-.68ZM548.54,272.78c-.01-.48-.13-.84-.37-1.09s-.52-.37-.86-.37c-.36,0-.66.13-.89.39s-.35.62-.35,1.07h2.46Z"/>
    <path class="cls-28" d="M557.22,276.43h-1.53v-.91c-.25.36-.55.62-.9.79s-.69.26-1.05.26c-.71,0-1.33-.29-1.84-.86s-.76-1.38-.76-2.41.25-1.86.74-2.41,1.12-.82,1.88-.82c.7,0,1.3.29,1.8.87v-3.09h1.65v8.59ZM552.83,273.18c0,.66.09,1.14.28,1.44.27.43.64.64,1.11.64.38,0,.7-.16.97-.48s.4-.8.4-1.44c0-.71-.13-1.23-.39-1.54s-.59-.47-.99-.47-.72.16-.98.47-.4.77-.4,1.39Z"/>
    <path class="cls-28" d="M564.55,276.43h-1.53v-.91c-.25.36-.55.62-.9.79s-.69.26-1.05.26c-.71,0-1.33-.29-1.84-.86s-.76-1.38-.76-2.41.25-1.86.74-2.41,1.12-.82,1.88-.82c.7,0,1.3.29,1.8.87v-3.09h1.65v8.59ZM560.16,273.18c0,.66.09,1.14.28,1.44.27.43.64.64,1.11.64.38,0,.7-.16.97-.48s.4-.8.4-1.44c0-.71-.13-1.23-.39-1.54s-.59-.47-.99-.47-.72.16-.98.47-.4.77-.4,1.39Z"/>
    <path class="cls-28" d="M566.18,269.36v-1.52h1.65v1.52h-1.65ZM566.18,276.43v-6.22h1.65v6.22h-1.65Z"/>
    <path class="cls-28" d="M575.17,276.43h-1.65v-3.18c0-.67-.04-1.11-.11-1.3s-.18-.35-.34-.46-.35-.16-.57-.16c-.29,0-.54.08-.77.23s-.38.36-.47.62-.13.73-.13,1.43v2.82h-1.65v-6.22h1.53v.91c.54-.7,1.23-1.05,2.05-1.05.36,0,.7.07,1,.2s.53.3.68.5.26.43.32.69.09.63.09,1.11v3.87Z"/>
    <path class="cls-28" d="M576.69,276.84l1.88.23c.03.22.1.37.22.45.16.12.4.18.74.18.43,0,.75-.06.97-.19.14-.09.25-.22.33-.42.05-.14.08-.39.08-.76v-.91c-.49.67-1.11,1.01-1.86,1.01-.84,0-1.5-.35-1.99-1.06-.38-.56-.57-1.25-.57-2.09,0-1.04.25-1.84.75-2.39s1.13-.83,1.87-.83,1.4.34,1.9,1.01v-.87h1.54v5.58c0,.73-.06,1.28-.18,1.65s-.29.65-.51.86-.51.37-.88.49-.83.18-1.39.18c-1.05,0-1.8-.18-2.24-.54s-.66-.82-.66-1.37c0-.05,0-.12,0-.2ZM578.16,273.19c0,.66.13,1.14.38,1.45s.57.46.95.46c.4,0,.74-.16,1.02-.47s.42-.78.42-1.4-.13-1.12-.4-1.44-.6-.47-1.01-.47-.72.15-.98.46-.38.77-.38,1.4Z"/>
    <path class="cls-28" d="M583.59,274.65l1.65-.25c.07.32.21.56.43.73s.52.25.9.25c.43,0,.75-.08.96-.23.14-.11.22-.26.22-.44,0-.12-.04-.23-.12-.31-.08-.08-.27-.15-.55-.22-1.33-.29-2.17-.56-2.53-.8-.49-.34-.74-.8-.74-1.4,0-.54.21-.99.64-1.36s1.09-.55,1.98-.55,1.48.14,1.9.42.7.69.86,1.23l-1.55.29c-.07-.24-.19-.43-.38-.56s-.45-.19-.79-.19c-.43,0-.74.06-.93.18-.12.09-.19.2-.19.33,0,.12.05.22.16.3.15.11.66.26,1.54.46s1.49.44,1.84.73c.34.29.52.7.52,1.22,0,.57-.24,1.06-.71,1.47s-1.18.62-2.12.62c-.85,0-1.52-.17-2.01-.52s-.82-.81-.97-1.4Z"/>
  </g>
  <text class="cls-31" transform="translate(274.96 38.49)"><tspan x="0" y="0">Phase1: Pretraining</tspan></text>
  <text class="cls-31" transform="translate(674.85 38.49)"><tspan x="0" y="0" xml:space="preserve">Phase2:  Fine-tuning</tspan></text>
  <text class="cls-30" transform="translate(548.48 299.54)"><tspan x="0" y="0">Z</tspan></text>
  <line class="cls-3" x1="553.98" y1="307.46" x2="553.98" y2="356.14"/>
  <line class="cls-3" x1="323.64" y1="357.21" x2="896.24" y2="357.21"/>
  <g>
    <line class="cls-3" x1="895.23" y1="357.21" x2="895.23" y2="383.79"/>
    <polygon class="cls-28" points="891.84 379.8 895.23 383.2 898.63 379.8 898.63 382.68 895.23 386.07 891.84 382.68 891.84 379.8"/>
  </g>
  <g>
    <rect class="cls-25" x="812.25" y="391.72" width="165.97" height="33.82" rx="5.27" ry="5.27"/>
    <text class="cls-31" transform="translate(838.83 412.6)"><tspan x="0" y="0">UMAP Visualization</tspan></text>
  </g>
  <g>
    <rect class="cls-27" x="462" y="374" width="292.13" height="171.19" rx="13.32" ry="13.32"/>
    <rect class="cls-4" x="462" y="374" width="292.13" height="171.19" rx="13.32" ry="13.32"/>
  </g>
  <g>
    <rect class="cls-25" x="525.07" y="394.75" width="165.97" height="33.82" rx="5.27" ry="5.27"/>
    <text class="cls-31" transform="translate(535.97 415.63)"><tspan x="0" y="0">Determine Optimal Score</tspan></text>
  </g>
  <g>
    <rect class="cls-29" x="483" y="444.58" width="250.31" height="81.22" rx="11.71" ry="11.71"/>
    <rect class="cls-17" x="483" y="444.58" width="250.31" height="81.22" rx="11.71" ry="11.71"/>
  </g>
  <g>
    <rect class="cls-25" x="496.98" y="491.91" width="79.93" height="23.52" rx="5.24" ry="5.24"/>
    <text class="cls-34" transform="translate(501.44 505.95)"><tspan x="0" y="0">Silhouette Score</tspan></text>
  </g>
  <g>
    <rect class="cls-25" x="496" y="459.13" width="224.3" height="23.52" rx="5.24" ry="5.24"/>
    <text class="cls-34" transform="translate(526.89 473.18)"><tspan x="0" y="0">Silhouette Davies-Bouldin IndexScore</tspan></text>
  </g>
  <g>
    <rect class="cls-25" x="586.76" y="491.91" width="132.71" height="23.52" rx="5.24" ry="5.24"/>
    <text class="cls-34" transform="translate(600.84 505.95)"><tspan x="0" y="0">Calinski Harabasz Score</tspan></text>
  </g>
  <g>
    <line class="cls-3" x1="512.27" y1="59.43" x2="518.27" y2="59.43"/>
    <line class="cls-12" x1="520.29" y1="59.43" x2="985.98" y2="59.43"/>
    <line class="cls-3" x1="986.99" y1="59.43" x2="992.99" y2="59.43"/>
  </g>
  <line class="cls-20" x1="512.74" y1="59.08" x2="512.74" y2="70.27"/>
  <g>
    <line class="cls-3" x1="992.99" y1="59.43" x2="992.93" y2="65.43"/>
    <line class="cls-23" x1="992.91" y1="67.38" x2="991.89" y2="161.66"/>
    <line class="cls-3" x1="991.88" y1="162.63" x2="991.82" y2="168.63"/>
  </g>
  <g>
    <line class="cls-3" x1="948.92" y1="168.17" x2="954.92" y2="168.17"/>
    <line class="cls-22" x1="957" y1="168.17" x2="985.04" y2="168.17"/>
    <line class="cls-3" x1="986.08" y1="168.17" x2="992.08" y2="168.17"/>
    <polygon class="cls-28" points="952.9 171.56 949.51 168.17 952.9 164.78 950.02 164.78 946.63 168.17 950.02 171.56 952.9 171.56"/>
  </g>
  <g>
    <line class="cls-3" x1="608.06" y1="357.21" x2="608.06" y2="383.79"/>
    <polygon class="cls-28" points="604.67 379.8 608.06 383.2 611.45 379.8 611.45 382.68 608.06 386.07 604.67 382.68 604.67 379.8"/>
  </g>
  <g>
    <rect class="cls-27" x="220.2" y="374" width="208.21" height="171.19" rx="13.32" ry="13.32"/>
    <rect class="cls-11" x="220.2" y="374" width="208.21" height="171.19" rx="13.32" ry="13.32"/>
  </g>
  <g>
    <rect class="cls-25" x="241.32" y="394.75" width="165.97" height="33.82" rx="5.27" ry="5.27"/>
    <text class="cls-31" transform="translate(303.24 415.63)"><tspan x="0" y="0">Models</tspan></text>
  </g>
  <g>
    <rect class="cls-29" x="226.57" y="443.52" width="195.46" height="81.22" rx="11.71" ry="11.71"/>
    <rect class="cls-10" x="226.57" y="443.52" width="195.46" height="81.22" rx="11.71" ry="11.71"/>
  </g>
  <g>
    <line class="cls-3" x1="324.3" y1="356.22" x2="324.3" y2="383.79"/>
    <polygon class="cls-28" points="320.91 379.8 324.3 383.2 327.69 379.8 327.69 382.68 324.3 386.07 320.91 382.68 320.91 379.8"/>
  </g>
  <g>
    <rect class="cls-25" x="251.38" y="491.27" width="145.71" height="23.52" rx="5.24" ry="5.24"/>
    <text class="cls-34" transform="translate(274.96 505.32)"><tspan x="0" y="0">Hierarchical Clustering</tspan></text>
  </g>
  <g>
    <g>
      <rect class="cls-25" x="248.59" y="456.27" width="69.35" height="23.52" rx="5.24" ry="5.24"/>
      <text class="cls-34" transform="translate(264.51 470.32)"><tspan x="0" y="0">K-Means</tspan></text>
    </g>
    <g>
      <rect class="cls-25" x="329.8" y="456.27" width="69.35" height="23.52" rx="5.24" ry="5.24"/>
      <text class="cls-34" transform="translate(352.97 470.32)"><tspan x="0" y="0">Birch</tspan></text>
    </g>
  </g>
  <text class="cls-31" transform="translate(466 570.42)"><tspan x="0" y="0" xml:space="preserve">Phase3:  Cluster Analysis and Downstream Tasks</tspan></text>
  <g>
    <rect class="cls-29" x="798.89" y="444.58" width="192.68" height="81.22" rx="11.71" ry="11.71"/>
    <rect class="cls-14" x="798.89" y="444.58" width="192.68" height="81.22" rx="11.71" ry="11.71"/>
  </g>
  <line class="cls-3" x1="827.47" y1="470.89" x2="811.29" y2="470.89"/>
  <line class="cls-3" x1="827.47" y1="503.57" x2="811.29" y2="503.57"/>
  <line class="cls-3" x1="811.29" y1="469.91" x2="811.29" y2="504.56"/>
  <g>
    <rect class="cls-25" x="837.45" y="459.13" width="129.57" height="23.52" rx="5.24" ry="5.24"/>
    <text class="cls-34" transform="translate(860.98 473.06)"><tspan x="0" y="0">UMAP Dimension 1</tspan></text>
  </g>
  <g>
    <rect class="cls-25" x="837.45" y="489.52" width="129.57" height="23.52" rx="5.24" ry="5.24"/>
    <text class="cls-34" transform="translate(860.98 503.45)"><tspan x="0" y="0">UMAP Dimension 1</tspan></text>
  </g>
</svg>