<?xml version="1.0" encoding="UTF-8"?>
<svg id="_图层_1" data-name="图层 1" xmlns="http://www.w3.org/2000/svg" version="1.1" viewBox="0 0 247 252">
  <defs>
    <style>
      .cls-1 {
        fill: currentColor;
        stroke-width: 0px;
      }
    </style>
  </defs>
  <path class="cls-1" d="M225.9,106.17c-.23-4.32-3.36-9.13-9.65-9.43-7.76-.36-12.68,6.99-13.19,7.83-.19.31-.35.63-.42.98l-9.58,37.49-10.18,5.7,3.57-5.8c2.33-3.79,1.4-8.32-2.33-11.29-2.1-1.66-4.85-2.53-7.76-2.45-2.91.08-5.59,1.09-7.53,2.87l-42.69,38.73c-1.33,1.21-2.45,2.57-3.33,4.02-.88-1.45-2-2.81-3.33-4.02l-42.69-38.69c-1.96-1.78-4.64-2.79-7.53-2.87-2.91-.08-5.66.78-7.76,2.45-3.73,2.95-4.66,7.48-2.33,11.29l3.57,5.8-10.18-5.7-9.58-37.49c-.09-.34-.23-.67-.42-.98-.54-.84-5.43-8.21-13.19-7.83-6.31.31-9.44,5.11-9.64,9.43-.02.27,0,.55.07.82l10.18,47.69c.61,2.9,2.44,5.52,5.17,7.43l46.72,32.61c.72.5,1.14,1.24,1.14,2.01v8.98c0,5.07,5.01,9.19,11.18,9.19h21.79c2.52,0,4.96-.75,6.85-2.09,1.89,1.34,4.33,2.09,6.85,2.09h21.79c6.18,0,11.18-4.11,11.18-9.19v-8.98c0-.78.42-1.51,1.14-2.01l46.72-32.61c2.73-1.9,4.56-4.53,5.17-7.43l10.18-47.69c.02-.31.05-.58.02-.86h0ZM206.49,153.36"/>
  <path class="cls-1" d="M132.33,112.56c.76.31,1.59.59,2.49.81,3.01.8,4.87,4.06,4.17,7.3-.7,3.25-3.7,5.29-6.74,4.59-1.96-.49-3.76-1.14-5.41-1.94l-1.55,3.12c-1.93,3.98-4.12,7.81-6.54,11.46-4.83,7.02-12.1,13.96-22.56,11.76-7.6-1.6-13.09-7-16.43-13.8-3.3-6.72-4.66-14.99-4.25-23.34.8-16.65,8.67-35.44,25.2-45.34,2.88-1.71,6.2-3.05,9.6-2.42,3.88.72,6.12,3.64,7.32,6.32,1.12,2.51,1.67,5.48,2.03,8.12.27,1.91.48,4.07.7,6.2l.26,2.55c.62,5.78,1.44,11.22,3.31,15.69,1.76-3.38,3.72-6.95,5.75-9.63,1.71-2.27,4.09-4.79,7.28-5.94,3.62-1.33,7.28-.52,10.45,1.91,2.5,1.91,3.79,4.67,4.52,7.08.72,2.42,1.05,5.09,1.24,7.61.18,2.43.24,5.05.3,7.55v.38c.08,2.69.14,5.29.33,7.82.39,5.23,1.24,9.09,2.78,11.56,1.22,1.95,3.24,3.65,7.96,3.65,3.14,0,5.69,2.73,5.69,6.11s-2.55,6.1-5.69,6.1c-8.01,0-13.8-3.3-17.4-9.05-3.27-5.23-4.26-11.79-4.68-17.4-.19-2.82-.3-5.65-.35-8.47v-.24c-.08-2.63-.13-4.97-.28-7.06-.08-1.63-.32-3.25-.73-4.83-.09-.33-.21-.64-.38-.94-.08-.06-.17-.11-.26-.16-.29.16-.95.67-1.97,2.01-1.82,2.42-3.46,5.62-5.35,9.3l-.79,1.55ZM117.65,115.84c-1.39-1.82-2.58-3.8-3.55-5.91-3.12-6.73-4.14-14.45-4.8-20.59-.1-.97-.21-1.93-.3-2.9-.2-2-.38-3.78-.61-5.45-.16-1.31-.41-2.61-.76-3.88-.48.21-.94.46-1.4.73-12.39,7.42-18.74,21.87-19.38,35.3-.32,6.67.81,12.66,2.96,17.01,2.1,4.28,5.03,6.78,8.55,7.52,3.77.8,7.17-1.13,11.23-7.03,1.98-2.87,3.83-6.3,5.69-10.01l1.82-3.67.55-1.12ZM136.08,44.25c-5.23,0-9.48,4.56-9.48,10.17s4.24,10.17,9.48,10.17,9.48-4.56,9.48-10.17-4.24-10.17-9.48-10.17h0ZM115.24,54.43c0-12.36,9.33-22.38,20.85-22.38s20.85,10.02,20.85,22.38-9.33,22.38-20.85,22.38-20.85-10.02-20.85-22.38h0ZM115.24,54.43"/>
</svg>