<?xml version="1.0" encoding="UTF-8"?>
<svg id="_图层_1" data-name="图层 1" xmlns="http://www.w3.org/2000/svg" version="1.1" viewBox="0 0 1029.13 611.5">
  <defs>
    <style>
      .cls-1 {
        stroke-dasharray: 0 0 12.05 6.03;
      }

      .cls-1, .cls-2, .cls-3, .cls-4, .cls-5, .cls-6, .cls-7, .cls-8, .cls-9, .cls-10, .cls-11, .cls-12, .cls-13 {
        stroke: #231815;
        stroke-miterlimit: 10;
        stroke-width: 2px;
      }

      .cls-1, .cls-2, .cls-3, .cls-4, .cls-5, .cls-6, .cls-7, .cls-8, .cls-9, .cls-11, .cls-13 {
        fill: none;
      }

      .cls-14 {
        fill: #efefef;
      }

      .cls-14, .cls-15, .cls-16 {
        stroke-width: 0px;
      }

      .cls-3 {
        stroke-dasharray: 0 0 11.92 1.99;
      }

      .cls-15, .cls-17, .cls-18, .cls-19 {
        fill: #231815;
      }

      .cls-4 {
        stroke-dasharray: 0 0 11.53 1.92;
      }

      .cls-17 {
        font-size: 12px;
      }

      .cls-17, .cls-18, .cls-19 {
        font-family: Arial-BoldMT, Arial;
        font-weight: 700;
      }

      .cls-16 {
        fill: #acc1d7;
      }

      .cls-18 {
        font-size: 10px;
      }

      .cls-5 {
        stroke-dasharray: 0 0 11.99 6;
      }

      .cls-6 {
        stroke-dasharray: 0 0 11.76 1.96;
      }

      .cls-7 {
        stroke-dasharray: 0 0 12.01 2;
      }

      .cls-8 {
        stroke-dasharray: 0 0 11.94 5.97;
      }

      .cls-9 {
        stroke-dasharray: 0 0 11.86 1.98;
      }

      .cls-10 {
        fill: #fff;
      }

      .cls-11 {
        stroke-dasharray: 0 0 11.78 1.96;
      }

      .cls-12 {
        fill: #bedff6;
      }

      .cls-19 {
        font-size: 9px;
      }

      .cls-13 {
        stroke-dasharray: 0 0 12.03 6.02;
      }
    </style>
  </defs>
  <g>
    <rect class="cls-14" x="36.61" y="467.34" width="427.49" height="108.33" rx="13.32" ry="13.32"/>
    <rect class="cls-1" x="36.61" y="467.34" width="427.49" height="108.33" rx="13.32" ry="13.32"/>
  </g>
  <g>
    <rect class="cls-14" x="499.98" y="45.32" width="506.6" height="530.35" rx="13.32" ry="13.32"/>
    <rect class="cls-5" x="499.98" y="45.32" width="506.6" height="530.35" rx="13.32" ry="13.32"/>
  </g>
  <g>
    <rect class="cls-14" x="35.42" y="45.32" width="428.69" height="110.88" rx="13.32" ry="13.32"/>
    <rect class="cls-8" x="35.42" y="45.32" width="428.69" height="110.88" rx="13.32" ry="13.32"/>
  </g>
  <text/>
  <text/>
  <text class="cls-17" transform="translate(163.53 33.28)"><tspan x="0" y="0">Phase 1: Setup &amp; Initialization</tspan></text>
  <g>
    <g>
      <rect class="cls-10" x="56.95" y="81.44" width="124.1" height="38.63" rx="5.28" ry="5.28"/>
      <text class="cls-17" transform="translate(91.99 103.65)"><tspan x="0" y="0">Raw Data</tspan></text>
    </g>
    <g>
      <line class="cls-2" x1="192.56" y1="100.76" x2="267.12" y2="100.76"/>
      <polygon class="cls-15" points="263.13 104.15 266.53 100.76 263.13 97.37 266.01 97.37 269.4 100.76 266.01 104.15 263.13 104.15"/>
    </g>
    <g>
      <rect class="cls-10" x="280.91" y="81.44" width="161.66" height="38.63" rx="5.28" ry="5.28"/>
      <text class="cls-17" transform="translate(297.06 103.65)"><tspan x="0" y="0">Define Feature Groups</tspan></text>
    </g>
    <text class="cls-17" transform="translate(205.64 89.67)"><tspan x="0" y="0">Clean up</tspan></text>
  </g>
  <polygon class="cls-15" points="484.83 107.51 491.59 100.76 484.83 94.01 484.83 97.94 474.75 97.94 474.75 103.57 484.83 103.57 484.83 107.51"/>
  <text class="cls-17" transform="translate(671.59 35.65)"><tspan x="0" y="0">Phase 2: Cross-Validation Engine</tspan></text>
  <g>
    <rect class="cls-16" x="512.21" y="57.39" width="484.27" height="180.88"/>
    <g>
      <polyline class="cls-2" points="996.48 232.27 996.48 238.27 990.48 238.27"/>
      <line class="cls-9" x1="988.5" y1="238.27" x2="519.19" y2="238.27"/>
      <polyline class="cls-2" points="518.21 238.27 512.21 238.27 512.21 232.27"/>
      <line class="cls-3" x1="512.21" y1="230.29" x2="512.21" y2="64.39"/>
      <polyline class="cls-2" points="512.21 63.39 512.21 57.39 518.21 57.39"/>
      <line class="cls-9" x1="520.18" y1="57.39" x2="989.49" y2="57.39"/>
      <polyline class="cls-2" points="990.48 57.39 996.48 57.39 996.48 63.39"/>
      <line class="cls-3" x1="996.48" y1="65.38" x2="996.48" y2="231.28"/>
    </g>
  </g>
  <g>
    <rect class="cls-10" x="528.58" y="71.56" width="85.54" height="35.6" rx="5.24" ry="5.24"/>
    <text class="cls-18" transform="translate(546.63 91.76)"><tspan x="0" y="0">Start Fold </tspan></text>
  </g>
  <text class="cls-17" transform="translate(804.91 80.6)"><tspan x="0" y="0">A. In-Fold Preprocessing</tspan></text>
  <g>
    <line class="cls-2" x1="625.68" y1="90.32" x2="654.92" y2="90.32"/>
    <polygon class="cls-15" points="650.93 93.71 654.33 90.32 650.93 86.93 653.81 86.93 657.2 90.32 653.81 93.71 650.93 93.71"/>
  </g>
  <g>
    <rect class="cls-10" x="666" y="72.5" width="97.07" height="35.6" rx="5.24" ry="5.24"/>
    <text class="cls-18" transform="translate(678.7 93.34)"><tspan x="0" y="0">StratifiedKFold</tspan></text>
  </g>
  <g>
    <rect class="cls-10" x="777.81" y="94.31" width="196.71" height="132.23" rx="5.24" ry="5.24"/>
    <text class="cls-19" transform="translate(791.95 114.06)"><tspan x="0" y="0">Encode &amp; Scale</tspan></text>
    <g>
      <rect class="cls-12" x="794.47" y="124.69" width="24.19" height="87.89" rx="5.23" ry="5.23"/>
      <text class="cls-19" transform="translate(808.73 203.1) rotate(-90)"><tspan x="0" y="0">OneHotEncoder</tspan></text>
    </g>
    <g>
      <rect class="cls-12" x="831.5" y="124.69" width="24.19" height="87.89" rx="5.23" ry="5.23"/>
      <text class="cls-19" transform="translate(845.76 201.17) rotate(-90)"><tspan x="0" y="0">StandardScaler</tspan></text>
    </g>
    <text class="cls-19" transform="translate(880.85 114.06)"><tspan x="0" y="0">Feature Engineering</tspan></text>
    <g>
      <rect class="cls-12" x="895.66" y="122.73" width="24.19" height="91.8" rx="5.23" ry="5.23"/>
      <text class="cls-19" transform="translate(909.92 194.14) rotate(-90)"><tspan x="0" y="0">Interactions</tspan></text>
    </g>
    <g>
      <rect class="cls-12" x="932.68" y="122.73" width="24.19" height="91.8" rx="5.23" ry="5.23"/>
      <text class="cls-19" transform="translate(946.94 210.02) rotate(-90)"><tspan x="0" y="0">Polynomial (deg=2)</tspan></text>
    </g>
    <g>
      <line class="cls-2" x1="868.53" y1="168.63" x2="880.53" y2="168.63"/>
      <polygon class="cls-15" points="876.55 172.02 879.94 168.63 876.55 165.24 879.42 165.24 882.81 168.63 879.42 172.02 876.55 172.02"/>
    </g>
  </g>
  <line class="cls-2" x1="714.53" y1="108.1" x2="714.53" y2="127.72"/>
  <g>
    <line class="cls-2" x1="713.74" y1="126.75" x2="768.16" y2="126.75"/>
    <polygon class="cls-15" points="764.18 130.14 767.57 126.75 764.18 123.36 767.06 123.36 770.45 126.75 767.06 130.14 764.18 130.14"/>
  </g>
  <g>
    <g>
      <rect class="cls-10" x="659.77" y="183.37" width="110.68" height="35.6" rx="5.24" ry="5.24"/>
      <text/>
    </g>
    <text class="cls-18" transform="translate(669.81 203.58)"><tspan x="0" y="0">Preprocessed Data</tspan></text>
  </g>
  <line class="cls-2" x1="713.74" y1="149.57" x2="777.81" y2="149.57"/>
  <g>
    <line class="cls-2" x1="714.77" y1="149.1" x2="714.77" y2="173.97"/>
    <polygon class="cls-15" points="711.38 169.99 714.77 173.38 718.16 169.99 718.16 172.87 714.77 176.26 711.38 172.87 711.38 169.99"/>
  </g>
  <g>
    <rect class="cls-16" x="821.15" y="257.46" width="175.32" height="302.69"/>
    <g>
      <polyline class="cls-2" points="996.48 554.15 996.48 560.15 990.48 560.15"/>
      <line class="cls-4" x1="988.55" y1="560.15" x2="828.12" y2="560.15"/>
      <polyline class="cls-2" points="827.15 560.15 821.15 560.15 821.15 554.15"/>
      <line class="cls-11" x1="821.15" y1="552.19" x2="821.15" y2="264.45"/>
      <polyline class="cls-2" points="821.15 263.46 821.15 257.46 827.15 257.46"/>
      <line class="cls-4" x1="829.08" y1="257.46" x2="989.52" y2="257.46"/>
      <polyline class="cls-2" points="990.48 257.46 996.48 257.46 996.48 263.46"/>
      <line class="cls-11" x1="996.48" y1="265.43" x2="996.48" y2="553.17"/>
    </g>
  </g>
  <text class="cls-17" transform="translate(830.12 277.22)"><tspan x="0" y="0">B. Parallel Feature Selection</tspan></text>
  <g>
    <g>
      <rect class="cls-10" x="841.68" y="290.58" width="138.26" height="57.2" rx="5.24" ry="5.24"/>
      <text/>
    </g>
    <g>
      <path class="cls-15" d="M881.51,308.16v-1.21h3.12v2.85c-.3.29-.74.55-1.32.77-.58.22-1.16.33-1.75.33-.75,0-1.4-.16-1.96-.47-.56-.31-.97-.76-1.25-1.35-.28-.58-.42-1.22-.42-1.91,0-.75.16-1.41.47-1.99.31-.58.77-1.02,1.37-1.33.46-.24,1.03-.36,1.71-.36.89,0,1.58.19,2.08.56.5.37.82.89.96,1.55l-1.44.27c-.1-.35-.29-.63-.57-.83-.28-.2-.63-.3-1.04-.3-.63,0-1.13.2-1.51.6-.37.4-.56.99-.56,1.78,0,.85.19,1.49.57,1.91s.87.64,1.48.64c.3,0,.61-.06.91-.18.3-.12.57-.26.78-.43v-.91h-1.66Z"/>
      <path class="cls-15" d="M885.97,310.79v-7.16h4.91v1.21h-3.46v1.69h2.99v1.21h-2.99v3.04h-1.45Z"/>
      <path class="cls-15" d="M891.7,308.46l1.41-.14c.08.47.26.82.52,1.04.26.22.61.33,1.05.33.47,0,.82-.1,1.05-.3.24-.2.35-.43.35-.69,0-.17-.05-.31-.15-.43-.1-.12-.27-.22-.52-.31-.17-.06-.55-.16-1.16-.31-.77-.19-1.32-.43-1.63-.71-.44-.39-.66-.87-.66-1.44,0-.37.1-.71.31-1.02.21-.32.5-.56.89-.72.39-.17.86-.25,1.41-.25.9,0,1.57.2,2.03.59.45.39.69.92.71,1.58l-1.45.06c-.06-.37-.19-.63-.4-.79-.2-.16-.51-.24-.92-.24s-.75.09-.99.26c-.15.11-.23.26-.23.44,0,.17.07.31.21.43.18.15.62.31,1.33.48s1.22.34,1.56.51c.34.18.6.42.79.73.19.31.29.69.29,1.14,0,.41-.11.79-.34,1.15-.23.36-.55.62-.97.8-.42.17-.94.26-1.56.26-.91,0-1.6-.21-2.08-.63-.49-.42-.77-1.03-.87-1.83Z"/>
      <path class="cls-15" d="M907.85,309.91l-.83,1.06c-.41-.2-.8-.47-1.17-.82-.29.26-.6.45-.92.58-.33.12-.71.19-1.16.19-.89,0-1.56-.25-2.01-.75-.35-.39-.52-.83-.52-1.34,0-.46.14-.87.41-1.24s.68-.68,1.23-.95c-.24-.29-.43-.57-.55-.83-.12-.26-.19-.51-.19-.74,0-.43.17-.8.52-1.1.35-.3.84-.45,1.48-.45s1.1.16,1.45.47c.35.32.52.7.52,1.16,0,.29-.09.56-.26.83-.17.26-.52.55-1.04.88l1,1.31c.12-.21.22-.48.3-.82l1.24.28c-.12.44-.23.76-.32.96-.09.2-.19.37-.29.51.15.14.35.3.59.47.24.17.42.28.54.34ZM903.57,307.51c-.32.16-.55.35-.71.58s-.23.45-.23.69c0,.3.1.54.29.72.19.19.45.28.78.28.21,0,.42-.04.62-.13.2-.08.42-.22.65-.42l-1.4-1.72ZM904.11,306.02l.37-.28c.27-.21.41-.42.41-.63,0-.18-.07-.33-.2-.45-.13-.12-.31-.19-.53-.19s-.39.05-.51.16c-.12.11-.19.24-.19.38,0,.17.1.37.31.62l.34.39Z"/>
      <path class="cls-15" d="M917.6,310.79h-1.57l-.62-1.63h-2.86l-.59,1.63h-1.53l2.79-7.16h1.53l2.87,7.16ZM914.94,307.96l-.99-2.66-.97,2.66h1.95Z"/>
      <path class="cls-15" d="M918.3,310.79v-7.16h1.37v2.58c.42-.48.92-.72,1.5-.72.63,0,1.15.23,1.57.69.41.46.62,1.11.62,1.97s-.21,1.57-.63,2.05c-.42.48-.93.72-1.54.72-.3,0-.59-.07-.88-.22-.29-.15-.54-.37-.74-.66v.76h-1.27ZM919.66,308.08c0,.54.08.93.25,1.19.24.36.55.55.95.55.3,0,.56-.13.77-.39.21-.26.32-.67.32-1.22,0-.59-.11-1.02-.32-1.28-.21-.26-.49-.39-.83-.39s-.6.13-.82.38c-.22.26-.33.64-.33,1.17Z"/>
      <path class="cls-15" d="M924.46,310.79v-7.16h1.37v7.16h-1.37Z"/>
      <path class="cls-15" d="M928.27,307.18l-1.25-.22c.14-.5.38-.87.72-1.11.34-.24.85-.36,1.52-.36.61,0,1.07.07,1.37.22.3.15.51.33.63.55.12.22.18.63.18,1.23v1.6c-.01.46,0,.79.05,1.01.04.22.13.45.25.7h-1.36c-.04-.09-.08-.23-.13-.41-.02-.08-.04-.14-.05-.16-.23.23-.49.4-.75.51-.27.11-.55.17-.85.17-.53,0-.96-.15-1.26-.43-.31-.29-.46-.66-.46-1.1,0-.29.07-.55.21-.78s.34-.41.59-.53c.25-.12.62-.23,1.09-.32.64-.12,1.09-.23,1.33-.34v-.14c0-.26-.07-.45-.2-.56s-.38-.17-.74-.17c-.24,0-.43.05-.57.14-.14.1-.25.26-.33.51ZM930.1,308.3c-.18.06-.45.13-.83.21-.38.08-.63.16-.75.24-.18.13-.27.29-.27.48s.07.36.21.5c.14.14.33.21.55.21.25,0,.48-.08.71-.24.17-.12.28-.28.33-.45.04-.12.05-.34.05-.67v-.27Z"/>
      <path class="cls-15" d="M935.18,305.6v1.09h-.94v2.09c0,.42,0,.67.03.74.02.07.06.13.12.17.06.04.14.07.23.07.13,0,.31-.04.55-.13l.12,1.06c-.32.14-.68.21-1.08.21-.25,0-.47-.04-.67-.12s-.34-.19-.44-.32c-.09-.13-.16-.31-.19-.53-.03-.16-.04-.48-.04-.97v-2.26h-.63v-1.09h.63v-1.03l1.38-.8v1.83h.94Z"/>
      <path class="cls-15" d="M936.13,304.9v-1.27h1.37v1.27h-1.37ZM936.13,310.79v-5.19h1.37v5.19h-1.37Z"/>
      <path class="cls-15" d="M938.59,308.12c0-.46.11-.9.34-1.32.22-.43.54-.75.95-.98.41-.22.87-.34,1.38-.34.78,0,1.43.25,1.93.76.5.51.75,1.15.75,1.93s-.25,1.43-.76,1.95c-.51.52-1.14.77-1.91.77-.48,0-.93-.11-1.36-.32-.43-.21-.76-.53-.98-.95s-.34-.92-.34-1.52ZM940,308.2c0,.51.12.91.37,1.18s.54.41.9.41.66-.14.9-.41c.24-.27.36-.67.36-1.19s-.12-.9-.36-1.17c-.24-.27-.54-.41-.9-.41s-.66.14-.9.41-.37.67-.37,1.18Z"/>
      <path class="cls-15" d="M949.74,310.79h-1.37v-2.65c0-.56-.03-.92-.09-1.09-.06-.16-.15-.29-.29-.38-.13-.09-.29-.14-.48-.14-.24,0-.45.06-.64.2-.19.13-.32.3-.39.52-.07.21-.11.61-.11,1.19v2.35h-1.37v-5.19h1.27v.76c.45-.59,1.02-.88,1.71-.88.3,0,.58.05.83.16.25.11.44.25.57.42.13.17.22.36.27.58.05.21.08.52.08.92v3.22Z"/>
      <path class="cls-15" d="M859.42,324.89h-.94c-.5-.75-.88-1.53-1.14-2.34s-.39-1.6-.39-2.35c0-.94.16-1.83.48-2.67.28-.73.63-1.4,1.06-2.02h.94c-.45.99-.75,1.83-.92,2.52-.17.69-.25,1.42-.25,2.2,0,.53.05,1.08.15,1.64.1.56.24,1.09.41,1.6.11.33.31.81.6,1.43Z"/>
      <path class="cls-15" d="M863.81,320.16v-1.21h3.12v2.85c-.3.29-.74.55-1.32.77-.58.22-1.16.33-1.75.33-.75,0-1.4-.16-1.96-.47-.56-.31-.97-.76-1.25-1.35-.28-.58-.42-1.22-.42-1.91,0-.75.16-1.41.47-1.99.31-.58.77-1.02,1.37-1.33.46-.24,1.03-.36,1.71-.36.89,0,1.58.19,2.08.56.5.37.82.89.96,1.55l-1.44.27c-.1-.35-.29-.63-.57-.83-.28-.2-.63-.3-1.04-.3-.63,0-1.13.2-1.51.6-.37.4-.56.99-.56,1.78,0,.85.19,1.49.57,1.91s.87.64,1.48.64c.3,0,.61-.06.91-.18.3-.12.57-.26.78-.43v-.91h-1.66Z"/>
      <path class="cls-15" d="M871.66,322.79v-.78c-.19.28-.44.49-.74.65-.31.16-.63.24-.97.24s-.66-.08-.94-.23c-.28-.15-.48-.37-.6-.64-.12-.28-.19-.66-.19-1.15v-3.28h1.37v2.38c0,.73.03,1.18.08,1.34.05.17.14.29.28.39.13.1.3.14.51.14.23,0,.44-.06.63-.19.19-.13.31-.29.38-.48s.1-.66.1-1.4v-2.19h1.37v5.19h-1.27Z"/>
      <path class="cls-15" d="M874.25,317.6h1.26v.71c.45-.55.99-.83,1.62-.83.33,0,.62.07.86.21s.44.34.6.62c.23-.28.47-.48.74-.62s.54-.21.84-.21c.38,0,.7.08.97.23.26.16.46.38.59.68.09.22.14.58.14,1.07v3.32h-1.37v-2.96c0-.51-.05-.85-.14-1-.13-.2-.32-.29-.59-.29-.19,0-.37.06-.54.18s-.29.29-.37.51c-.08.23-.11.58-.11,1.07v2.49h-1.37v-2.84c0-.5-.02-.83-.07-.98s-.12-.26-.23-.33c-.1-.07-.24-.11-.42-.11-.21,0-.4.06-.57.17-.17.11-.29.28-.36.49-.07.21-.11.57-.11,1.07v2.52h-1.37v-5.19Z"/>
      <path class="cls-15" d="M883.19,322.79v-7.16h1.37v2.58c.42-.48.92-.72,1.5-.72.63,0,1.15.23,1.57.69.41.46.62,1.11.62,1.97s-.21,1.57-.63,2.05c-.42.48-.93.72-1.54.72-.3,0-.59-.07-.88-.22-.29-.15-.54-.37-.74-.66v.76h-1.27ZM884.55,320.08c0,.54.08.93.25,1.19.24.36.55.55.95.55.3,0,.56-.13.77-.39.21-.26.32-.67.32-1.22,0-.59-.11-1.02-.32-1.28-.21-.26-.49-.39-.83-.39s-.6.13-.82.38c-.22.26-.33.64-.33,1.17Z"/>
      <path class="cls-15" d="M892.36,321.14l1.37.23c-.18.5-.45.88-.83,1.14-.38.26-.85.39-1.42.39-.9,0-1.57-.29-2-.88-.34-.47-.51-1.07-.51-1.79,0-.86.22-1.53.67-2.02.45-.49,1.02-.73,1.7-.73.77,0,1.38.25,1.83.76.45.51.66,1.29.64,2.34h-3.44c0,.41.12.72.33.95.21.23.48.34.79.34.21,0,.4-.06.54-.18s.26-.31.33-.57ZM892.44,319.75c0-.4-.11-.7-.31-.91-.2-.21-.43-.31-.71-.31-.3,0-.55.11-.74.33-.2.22-.29.51-.29.89h2.05Z"/>
      <path class="cls-15" d="M894.92,322.79v-7.16h1.37v7.16h-1.37Z"/>
      <path class="cls-15" d="M897.54,320.88v-1.37h2.7v1.37h-2.7Z"/>
      <path class="cls-15" d="M900.67,320.46l1.41-.14c.08.47.26.82.52,1.04.26.22.61.33,1.05.33.47,0,.82-.1,1.05-.3.24-.2.35-.43.35-.69,0-.17-.05-.31-.15-.43-.1-.12-.27-.22-.52-.31-.17-.06-.55-.16-1.16-.31-.77-.19-1.32-.43-1.63-.71-.44-.39-.66-.87-.66-1.44,0-.37.1-.71.31-1.02.21-.32.5-.56.89-.72.39-.17.86-.25,1.41-.25.9,0,1.57.2,2.03.59.45.39.69.92.71,1.58l-1.45.06c-.06-.37-.19-.63-.4-.79-.2-.16-.51-.24-.92-.24s-.75.09-.99.26c-.15.11-.23.26-.23.44,0,.17.07.31.21.43.18.15.62.31,1.33.48s1.22.34,1.56.51c.34.18.6.42.79.73.19.31.29.69.29,1.14,0,.41-.11.79-.34,1.15-.23.36-.55.62-.97.8-.42.17-.94.26-1.56.26-.91,0-1.6-.21-2.08-.63-.49-.42-.77-1.03-.87-1.83Z"/>
      <path class="cls-15" d="M907.7,316.9v-1.27h1.37v1.27h-1.37ZM907.7,322.79v-5.19h1.37v5.19h-1.37Z"/>
      <path class="cls-15" d="M910.35,323.13l1.57.19c.03.18.09.31.18.38.13.1.33.15.62.15.36,0,.63-.05.81-.16.12-.07.21-.19.27-.35.04-.11.06-.32.06-.63v-.76c-.41.56-.93.84-1.55.84-.7,0-1.25-.29-1.66-.88-.32-.47-.48-1.04-.48-1.74,0-.87.21-1.53.63-1.99.42-.46.94-.69,1.56-.69s1.17.28,1.59.84v-.73h1.28v4.65c0,.61-.05,1.07-.15,1.37s-.24.54-.42.71c-.18.17-.43.31-.73.41-.3.1-.69.15-1.15.15-.88,0-1.5-.15-1.87-.45-.37-.3-.55-.68-.55-1.14,0-.05,0-.1,0-.17ZM911.57,320.09c0,.55.11.95.32,1.21.21.26.48.38.79.38.33,0,.62-.13.85-.39.23-.26.35-.65.35-1.16s-.11-.94-.33-1.2c-.22-.26-.5-.39-.84-.39s-.6.13-.81.38c-.21.26-.32.65-.32,1.17Z"/>
      <path class="cls-15" d="M916.48,317.6h1.26v.71c.45-.55.99-.83,1.62-.83.33,0,.62.07.86.21s.44.34.6.62c.23-.28.47-.48.74-.62s.54-.21.84-.21c.38,0,.7.08.97.23.26.16.46.38.59.68.09.22.14.58.14,1.07v3.32h-1.37v-2.96c0-.51-.05-.85-.14-1-.13-.2-.32-.29-.59-.29-.19,0-.37.06-.54.18s-.29.29-.37.51c-.08.23-.11.58-.11,1.07v2.49h-1.37v-2.84c0-.5-.02-.83-.07-.98s-.12-.26-.23-.33c-.1-.07-.24-.11-.42-.11-.21,0-.4.06-.57.17-.17.11-.29.28-.36.49-.07.21-.11.57-.11,1.07v2.52h-1.37v-5.19Z"/>
      <path class="cls-15" d="M925.16,320.12c0-.46.11-.9.34-1.32.22-.43.54-.75.95-.98.41-.22.87-.34,1.38-.34.78,0,1.43.25,1.93.76.5.51.75,1.15.75,1.93s-.25,1.43-.76,1.95c-.51.52-1.14.77-1.91.77-.48,0-.93-.11-1.36-.32-.43-.21-.76-.53-.98-.95s-.34-.92-.34-1.52ZM926.56,320.2c0,.51.12.91.37,1.18s.54.41.9.41.66-.14.9-.41c.24-.27.36-.67.36-1.19s-.12-.9-.36-1.17c-.24-.27-.54-.41-.9-.41s-.66.14-.9.41-.37.67-.37,1.18Z"/>
      <path class="cls-15" d="M931.58,316.9v-1.27h1.37v1.27h-1.37ZM931.58,322.79v-5.19h1.37v5.19h-1.37Z"/>
      <path class="cls-15" d="M939.12,322.79h-1.27v-.76c-.21.3-.46.52-.75.66-.29.15-.58.22-.87.22-.6,0-1.11-.24-1.53-.72-.42-.48-.64-1.15-.64-2.01s.21-1.55.62-2c.41-.46.94-.69,1.57-.69.58,0,1.08.24,1.5.72v-2.58h1.37v7.16ZM935.46,320.08c0,.55.08.95.23,1.2.22.36.53.54.93.54.32,0,.58-.13.81-.4s.33-.67.33-1.2c0-.6-.11-1.02-.32-1.29-.21-.26-.49-.39-.83-.39s-.6.13-.82.39c-.22.26-.33.65-.33,1.16Z"/>
      <path class="cls-15" d="M943.15,317.6h1.26v.71c.45-.55.99-.83,1.62-.83.33,0,.62.07.86.21s.44.34.6.62c.23-.28.47-.48.74-.62s.54-.21.84-.21c.38,0,.7.08.97.23.26.16.46.38.59.68.09.22.14.58.14,1.07v3.32h-1.37v-2.96c0-.51-.05-.85-.14-1-.13-.2-.32-.29-.59-.29-.19,0-.37.06-.54.18s-.29.29-.37.51c-.08.23-.11.58-.11,1.07v2.49h-1.37v-2.84c0-.5-.02-.83-.07-.98s-.12-.26-.23-.33c-.1-.07-.24-.11-.42-.11-.21,0-.4.06-.57.17-.17.11-.29.28-.36.49-.07.21-.11.57-.11,1.07v2.52h-1.37v-5.19Z"/>
      <path class="cls-15" d="M953.17,319.18l-1.25-.22c.14-.5.38-.87.72-1.11.34-.24.85-.36,1.52-.36.61,0,1.07.07,1.37.22.3.15.51.33.63.55.12.22.18.63.18,1.23v1.6c-.01.46,0,.79.05,1.01.04.22.13.45.25.7h-1.36c-.04-.09-.08-.23-.13-.41-.02-.08-.04-.14-.05-.16-.23.23-.49.4-.75.51-.27.11-.55.17-.85.17-.53,0-.96-.15-1.26-.43-.31-.29-.46-.66-.46-1.1,0-.29.07-.55.21-.78s.34-.41.59-.53c.25-.12.62-.23,1.09-.32.64-.12,1.09-.23,1.33-.34v-.14c0-.26-.07-.45-.2-.56s-.38-.17-.74-.17c-.24,0-.43.05-.57.14-.14.1-.25.26-.33.51ZM955,320.3c-.18.06-.45.13-.83.21-.38.08-.63.16-.75.24-.18.13-.27.29-.27.48s.07.36.21.5c.14.14.33.21.55.21.25,0,.48-.08.71-.24.17-.12.28-.28.33-.45.04-.12.05-.34.05-.67v-.27Z"/>
      <path class="cls-15" d="M957.22,321.31l1.38-.21c.06.27.18.47.36.61.18.14.43.21.75.21.35,0,.62-.07.8-.2.12-.09.18-.21.18-.37,0-.1-.03-.19-.1-.26-.07-.07-.22-.13-.46-.18-1.11-.24-1.81-.47-2.1-.67-.41-.28-.62-.67-.62-1.17,0-.45.18-.83.53-1.13.35-.31.91-.46,1.65-.46s1.24.12,1.58.35c.34.23.58.57.71,1.03l-1.29.24c-.06-.2-.16-.36-.32-.46-.15-.11-.38-.16-.66-.16-.36,0-.62.05-.78.15-.1.07-.16.16-.16.28,0,.1.05.18.14.25.12.09.55.22,1.28.39.73.17,1.24.37,1.53.61.29.24.43.58.43,1.02,0,.47-.2.88-.6,1.23s-.98.51-1.76.51c-.71,0-1.27-.14-1.68-.43-.41-.29-.68-.68-.81-1.17Z"/>
      <path class="cls-15" d="M963.21,322.79v-7.16h1.37v3.8l1.61-1.83h1.69l-1.77,1.89,1.9,3.29h-1.48l-1.3-2.33-.64.67v1.66h-1.37Z"/>
      <path class="cls-15" d="M968.44,324.89c.27-.58.46-1.02.57-1.33.11-.31.21-.67.31-1.07.09-.4.16-.79.21-1.15.05-.36.07-.73.07-1.12,0-.78-.08-1.51-.25-2.2-.17-.69-.47-1.53-.92-2.52h.93c.49.7.87,1.44,1.14,2.23.27.78.41,1.58.41,2.39,0,.68-.11,1.41-.32,2.19-.24.87-.65,1.73-1.21,2.58h-.95Z"/>
      <path class="cls-15" d="M886.09,336.89h-.94c-.5-.75-.88-1.53-1.14-2.34s-.39-1.6-.39-2.35c0-.94.16-1.83.48-2.67.28-.73.63-1.4,1.06-2.02h.94c-.45.99-.75,1.83-.92,2.52-.17.69-.25,1.42-.25,2.2,0,.53.05,1.08.15,1.64.1.56.24,1.09.41,1.6.11.33.31.81.6,1.43Z"/>
      <path class="cls-15" d="M890.49,332.16v-1.21h3.12v2.85c-.3.29-.74.55-1.32.77-.58.22-1.16.33-1.75.33-.75,0-1.4-.16-1.96-.47-.56-.31-.97-.76-1.25-1.35-.28-.58-.42-1.22-.42-1.91,0-.75.16-1.41.47-1.99.31-.58.77-1.02,1.37-1.33.46-.24,1.03-.36,1.71-.36.89,0,1.58.19,2.08.56.5.37.82.89.96,1.55l-1.44.27c-.1-.35-.29-.63-.57-.83-.28-.2-.63-.3-1.04-.3-.63,0-1.13.2-1.51.6-.37.4-.56.99-.56,1.78,0,.85.19,1.49.57,1.91s.87.64,1.48.64c.3,0,.61-.06.91-.18.3-.12.57-.26.78-.43v-.91h-1.66Z"/>
      <path class="cls-15" d="M896.24,334.79h-1.37v-5.19h1.27v.74c.22-.35.41-.58.59-.69.17-.11.37-.17.59-.17.31,0,.61.09.9.26l-.42,1.2c-.23-.15-.45-.22-.64-.22s-.35.05-.49.16c-.13.11-.24.3-.31.57-.08.28-.12.86-.12,1.74v1.6Z"/>
      <path class="cls-15" d="M898.5,332.12c0-.46.11-.9.34-1.32.22-.43.54-.75.95-.98.41-.22.87-.34,1.38-.34.78,0,1.43.25,1.93.76.5.51.75,1.15.75,1.93s-.25,1.43-.76,1.95c-.51.52-1.14.77-1.91.77-.48,0-.93-.11-1.36-.32-.43-.21-.76-.53-.98-.95s-.34-.92-.34-1.52ZM899.91,332.2c0,.51.12.91.37,1.18s.54.41.9.41.66-.14.9-.41c.24-.27.36-.67.36-1.19s-.12-.9-.36-1.17c-.24-.27-.54-.41-.9-.41s-.66.14-.9.41-.37.67-.37,1.18Z"/>
      <path class="cls-15" d="M908.34,334.79v-.78c-.19.28-.44.49-.74.65-.31.16-.63.24-.97.24s-.66-.08-.94-.23c-.28-.15-.48-.37-.6-.64-.12-.28-.19-.66-.19-1.15v-3.28h1.37v2.38c0,.73.03,1.18.08,1.34.05.17.14.29.28.39.13.1.3.14.51.14.23,0,.44-.06.63-.19.19-.13.31-.29.38-.48s.1-.66.1-1.4v-2.19h1.37v5.19h-1.27Z"/>
      <path class="cls-15" d="M910.99,329.6h1.28v.76c.17-.26.39-.47.67-.63.28-.16.6-.24.94-.24.6,0,1.11.24,1.53.71.42.47.63,1.13.63,1.97s-.21,1.54-.63,2.02c-.42.48-.94.72-1.54.72-.29,0-.55-.06-.78-.17-.23-.11-.48-.31-.73-.59v2.61h-1.37v-7.16ZM912.35,332.11c0,.58.12,1.01.35,1.29s.51.42.84.42.58-.13.8-.38c.21-.25.32-.67.32-1.26,0-.54-.11-.95-.33-1.21s-.49-.4-.81-.4-.61.13-.83.39-.33.64-.33,1.15Z"/>
      <path class="cls-15" d="M916.99,332.88v-1.37h2.7v1.37h-2.7Z"/>
      <path class="cls-15" d="M921.44,334.79l-1.64-5.19h1.33l.97,3.4.89-3.4h1.32l.86,3.4.99-3.4h1.35l-1.67,5.19h-1.32l-.89-3.33-.88,3.33h-1.33Z"/>
      <path class="cls-15" d="M928.25,328.9v-1.27h1.37v1.27h-1.37ZM928.25,334.79v-5.19h1.37v5.19h-1.37Z"/>
      <path class="cls-15" d="M930.54,333.31l1.38-.21c.06.27.18.47.36.61.18.14.43.21.75.21.35,0,.62-.07.8-.2.12-.09.18-.21.18-.37,0-.1-.03-.19-.1-.26-.07-.07-.22-.13-.46-.18-1.11-.24-1.81-.47-2.1-.67-.41-.28-.62-.67-.62-1.17,0-.45.18-.83.53-1.13.35-.31.91-.46,1.65-.46s1.24.12,1.58.35c.34.23.58.57.71,1.03l-1.29.24c-.06-.2-.16-.36-.32-.46-.15-.11-.38-.16-.66-.16-.36,0-.62.05-.78.15-.1.07-.16.16-.16.28,0,.1.05.18.14.25.12.09.55.22,1.28.39.73.17,1.24.37,1.53.61.29.24.43.58.43,1.02,0,.47-.2.88-.6,1.23s-.98.51-1.76.51c-.71,0-1.27-.14-1.68-.43-.41-.29-.68-.68-.81-1.17Z"/>
      <path class="cls-15" d="M939.59,333.14l1.37.23c-.18.5-.45.88-.83,1.14-.38.26-.85.39-1.42.39-.9,0-1.57-.29-2-.88-.34-.47-.51-1.07-.51-1.79,0-.86.22-1.53.67-2.02.45-.49,1.02-.73,1.7-.73.77,0,1.38.25,1.83.76.45.51.66,1.29.64,2.34h-3.44c0,.41.12.72.33.95.21.23.48.34.79.34.21,0,.4-.06.54-.18s.26-.31.33-.57ZM939.67,331.75c0-.4-.11-.7-.31-.91-.2-.21-.43-.31-.71-.31-.3,0-.55.11-.74.33-.2.22-.29.51-.29.89h2.05Z"/>
      <path class="cls-15" d="M941.77,336.89c.27-.58.46-1.02.57-1.33.11-.31.21-.67.31-1.07.09-.4.16-.79.21-1.15.05-.36.07-.73.07-1.12,0-.78-.08-1.51-.25-2.2-.17-.69-.47-1.53-.92-2.52h.93c.49.7.87,1.44,1.14,2.23.27.78.41,1.58.41,2.39,0,.68-.11,1.41-.32,2.19-.24.87-.65,1.73-1.21,2.58h-.95Z"/>
    </g>
  </g>
  <g>
    <g>
      <rect class="cls-10" x="841.68" y="364.81" width="138.26" height="45.43" rx="5.24" ry="5.24"/>
      <text/>
    </g>
    <text class="cls-18" transform="translate(889.42 385.01)"><tspan x="0" y="0">LassoCV</tspan><tspan x="-15.29" y="12">(α via inner CV)</tspan></text>
  </g>
  <line class="cls-2" x1="911.01" y1="348.74" x2="911.01" y2="365.41"/>
  <g>
    <g>
      <rect class="cls-10" x="841.68" y="427.26" width="138.26" height="45.43" rx="5.24" ry="5.24"/>
      <text/>
    </g>
    <text class="cls-18" transform="translate(881.38 447.46)"><tspan x="0" y="0">RFE (LGBM)</tspan><tspan x="-4.74" y="12">(Select top 20)</tspan></text>
  </g>
  <g>
    <g>
      <rect class="cls-10" x="841.68" y="489.71" width="138.26" height="54.78" rx="5.24" ry="5.24"/>
      <text/>
    </g>
    <text class="cls-18" transform="translate(868.46 509.91)"><tspan x="0" y="0">Mutual Info + RFE</tspan><tspan x="1.24" y="12">(Select top 30 MI)</tspan><tspan x="18.75" y="24">(Wrapper)</tspan></text>
  </g>
  <line class="cls-2" x1="911.01" y1="410.41" x2="911.01" y2="427.08"/>
  <line class="cls-2" x1="911.01" y1="471.95" x2="911.01" y2="488.61"/>
  <g>
    <line class="cls-2" x1="821.73" y1="420.84" x2="808.85" y2="420.84"/>
    <polygon class="cls-15" points="812.84 417.45 809.44 420.84 812.84 424.23 809.96 424.23 806.57 420.84 809.96 417.45 812.84 417.45"/>
  </g>
  <g>
    <rect class="cls-12" x="773.64" y="339.74" width="24.19" height="162.21" rx="5.23" ry="5.23"/>
    <text class="cls-17" transform="translate(788.62 479.86) rotate(-90)"><tspan x="0" y="0">All Selected Subsets</tspan></text>
  </g>
  <g>
    <rect class="cls-16" x="512.21" y="257.46" width="233.57" height="302.69"/>
    <g>
      <polyline class="cls-2" points="745.78 554.15 745.78 560.15 739.78 560.15"/>
      <line class="cls-6" x1="737.82" y1="560.15" x2="519.19" y2="560.15"/>
      <polyline class="cls-2" points="518.21 560.15 512.21 560.15 512.21 554.15"/>
      <line class="cls-11" x1="512.21" y1="552.19" x2="512.21" y2="264.45"/>
      <polyline class="cls-2" points="512.21 263.46 512.21 257.46 518.21 257.46"/>
      <line class="cls-6" x1="520.17" y1="257.46" x2="738.8" y2="257.46"/>
      <polyline class="cls-2" points="739.78 257.46 745.78 257.46 745.78 263.46"/>
      <line class="cls-11" x1="745.78" y1="265.43" x2="745.78" y2="553.17"/>
    </g>
  </g>
  <g>
    <line class="cls-2" x1="764.89" y1="420.84" x2="752.02" y2="420.84"/>
    <polygon class="cls-15" points="756 417.45 752.61 420.84 756 424.23 753.12 424.23 749.73 420.84 753.12 417.45 756 417.45"/>
  </g>
  <text class="cls-17" transform="translate(550 277.37)"><tspan x="0" y="0">C. Model Evaluation Arena</tspan></text>
  <rect class="cls-10" x="530.69" y="290.96" width="196.71" height="159.01" rx="5.24" ry="5.24"/>
  <text/>
  <g>
    <rect class="cls-12" x="547.19" y="321.46" width="24.19" height="118.71" rx="5.23" ry="5.23"/>
    <text class="cls-19" transform="translate(561.45 423.83) rotate(-90)"><tspan x="0" y="0">Logistic Regression</tspan></text>
  </g>
  <text class="cls-17" transform="translate(577.99 307.52)"><tspan x="0" y="0">Models (Inner CV)</tspan></text>
  <g>
    <rect class="cls-12" x="593.27" y="321.46" width="24.19" height="118.71" rx="5.23" ry="5.23"/>
    <text class="cls-19" transform="translate(607.53 415.58) rotate(-90)"><tspan x="0" y="0">LGBM Classifier</tspan></text>
  </g>
  <g>
    <rect class="cls-12" x="639.35" y="321.46" width="24.19" height="118.71" rx="5.23" ry="5.23"/>
    <text class="cls-19" transform="translate(653.6 413.82) rotate(-90)"><tspan x="0" y="0">Random Forest</tspan></text>
  </g>
  <g>
    <rect class="cls-12" x="685.42" y="321.46" width="24.19" height="118.71" rx="5.23" ry="5.23"/>
    <text class="cls-19" transform="translate(699.68 417.58) rotate(-90)"><tspan x="0" y="0">TabNet Classifier</tspan></text>
  </g>
  <g>
    <line class="cls-2" x1="625.68" y1="449.97" x2="625.68" y2="465.05"/>
    <polygon class="cls-15" points="622.29 461.07 625.68 464.46 629.07 461.07 629.07 463.95 625.68 467.34 622.29 463.95 622.29 461.07"/>
  </g>
  <g>
    <rect class="cls-10" x="573.68" y="472.18" width="110.68" height="20.21" rx="5.24" ry="5.24"/>
    <text/>
  </g>
  <text class="cls-18" transform="translate(592.89 484.69)"><tspan x="0" y="0">Record Metrics</tspan></text>
  <g>
    <g>
      <rect class="cls-10" x="573.65" y="516.12" width="110.68" height="35.6" rx="5.24" ry="5.24"/>
      <text/>
    </g>
    <text class="cls-18" transform="translate(603.44 536.32)"><tspan x="0" y="0">End Fold k</tspan></text>
  </g>
  <g>
    <line class="cls-2" x1="625.68" y1="493.26" x2="625.68" y2="508.34"/>
    <polygon class="cls-15" points="622.29 504.36 625.68 507.75 629.07 504.36 629.07 507.24 625.68 510.63 622.29 507.24 622.29 504.36"/>
  </g>
  <g>
    <rect class="cls-10" x="528.58" y="183.05" width="85.54" height="35.6" rx="5.24" ry="5.24"/>
    <text class="cls-18" transform="translate(555.09 203.26)"><tspan x="0" y="0">K=1...5</tspan></text>
  </g>
  <path class="cls-2" d="M571.37,106.14v76.91-76.91Z"/>
  <polygon class="cls-15" points="481.51 514.75 474.75 521.5 481.51 528.25 481.51 524.31 491.59 524.31 491.59 518.69 481.51 518.69 481.51 514.75"/>
  <text class="cls-17" transform="translate(153.85 453.86)"><tspan x="0" y="0">Phase 3: Aggregation &amp; Analysis</tspan></text>
  <g>
    <g>
      <rect class="cls-10" x="49.75" y="486.33" width="114.92" height="20.21" rx="5.24" ry="5.24"/>
      <text class="cls-18" transform="translate(52.46 498.84)"><tspan x="0" y="0">Performance Summary</tspan></text>
    </g>
    <g>
      <line class="cls-2" x1="107.2" y1="507.01" x2="107.2" y2="522.09"/>
      <polygon class="cls-15" points="103.81 518.11 107.2 521.5 110.59 518.11 110.59 520.99 107.2 524.38 103.81 520.99 103.81 518.11"/>
    </g>
    <g>
      <g>
        <rect class="cls-10" x="44.49" y="530.71" width="125.43" height="20.21" rx="5.24" ry="5.24"/>
        <text/>
      </g>
      <text class="cls-18" transform="translate(52.89 543.22)"><tspan x="0" y="0">Mean &amp; Std + Boxplots</tspan></text>
    </g>
  </g>
  <g>
    <g>
      <g>
        <rect class="cls-10" x="192.9" y="486.25" width="114.92" height="20.21" rx="5.24" ry="5.24"/>
        <text class="cls-18" transform="translate(211.46 498.76)"><tspan x="0" y="0">Feature Stability</tspan></text>
      </g>
      <g>
        <line class="cls-2" x1="250.36" y1="506.92" x2="250.36" y2="522.01"/>
        <polygon class="cls-15" points="246.97 518.02 250.36 521.41 253.75 518.02 253.75 520.9 250.36 524.29 246.97 520.9 246.97 518.02"/>
      </g>
    </g>
    <g>
      <g>
        <rect class="cls-10" x="175.58" y="530.79" width="149.56" height="20.21" rx="5.24" ry="5.24"/>
        <text/>
      </g>
      <text class="cls-18" transform="translate(180.89 543.3)"><tspan x="0" y="0">Selection frequency heatmap</tspan></text>
    </g>
  </g>
  <g>
    <rect class="cls-10" x="336.88" y="486.33" width="114.92" height="20.21" rx="5.24" ry="5.24"/>
    <text class="cls-18" transform="translate(351.55 498.84)"><tspan x="0" y="0">Statistical Testing</tspan></text>
  </g>
  <g>
    <line class="cls-2" x1="394.34" y1="507.01" x2="394.34" y2="522.09"/>
    <polygon class="cls-15" points="390.95 518.11 394.34 521.5 397.73 518.11 397.73 520.99 394.34 524.38 390.95 520.99 390.95 518.11"/>
  </g>
  <g>
    <g>
      <rect class="cls-10" x="331.62" y="530.71" width="125.43" height="20.21" rx="5.24" ry="5.24"/>
      <text/>
    </g>
    <text class="cls-18" transform="translate(347.53 543.22)"><tspan x="0" y="0">Wilcoxon + BH FDR</tspan></text>
  </g>
  <polygon class="cls-15" points="256.51 419.18 249.76 412.42 243.01 419.18 246.95 419.18 246.95 429.26 252.57 429.26 252.57 419.18 256.51 419.18"/>
  <text class="cls-17" transform="translate(136.3 209.36)"><tspan x="0" y="0">Phase 4: Deep Dive on Champion Model</tspan></text>
  <g>
    <rect class="cls-14" x="36.91" y="222.45" width="427.49" height="179.64" rx="13.32" ry="13.32"/>
    <rect class="cls-13" x="36.91" y="222.45" width="427.49" height="179.64" rx="13.32" ry="13.32"/>
  </g>
  <g>
    <rect class="cls-10" x="172.89" y="240.56" width="165.97" height="33.82" rx="5.27" ry="5.27"/>
    <text class="cls-17" transform="translate(197.14 261.44)"><tspan x="0" y="0">Identify Best Combo</tspan></text>
  </g>
  <g>
    <rect class="cls-16" x="57.44" y="286" width="394.36" height="99.02" rx="11.71" ry="11.71"/>
    <rect class="cls-7" x="57.44" y="286" width="394.36" height="99.02" rx="11.71" ry="11.71"/>
  </g>
  <g>
    <g>
      <rect class="cls-10" x="70.57" y="300.48" width="110.68" height="75.83" rx="5.24" ry="5.24"/>
      <text/>
    </g>
    <text class="cls-17" transform="translate(90.9 334.08)"><tspan x="0" y="0">Permutation</tspan><tspan x="0" y="14.4" xml:space="preserve"> Importance</tspan></text>
  </g>
  <g>
    <rect class="cls-10" x="262.58" y="302.34" width="114.92" height="20.21" rx="5.24" ry="5.24"/>
    <text class="cls-18" transform="translate(284.19 314.85)"><tspan x="0" y="0">SHAP Analysis</tspan></text>
  </g>
  <g>
    <g>
      <rect class="cls-10" x="202.23" y="333.05" width="100.28" height="35.6" rx="5.24" ry="5.24"/>
      <text class="cls-18" transform="translate(208.47 353.25)"><tspan x="0" y="0">Global importance</tspan></text>
    </g>
    <g>
      <rect class="cls-10" x="337.56" y="333.05" width="100.28" height="35.6" rx="5.24" ry="5.24"/>
      <text class="cls-18" transform="translate(343.25 353.25)"><tspan x="0" y="0">SHAP dependence</tspan></text>
    </g>
  </g>
</svg>